<?xml version="1.0" standalone="no"?>
<!DOCTYPE svg PUBLIC "-//W3C//DTD SVG 1.1//EN" "http://www.w3.org/Graphics/SVG/1.1/DTD/svg11.dtd" >
<svg xmlns="http://www.w3.org/2000/svg">
<metadata>Generated by IcoMoon</metadata>
<defs>
<font id="Nextend" horiz-adv-x="1024">
<font-face units-per-em="1024" ascent="1024" descent="0" />
<missing-glyph horiz-adv-x="1024" />
<glyph unicode="&#x20;" horiz-adv-x="512" d="" />
<glyph unicode="&#xe600;" glyph-name="tick" d="M880.999 685.249v0l-453.949-453.949c-10.726-10.726-25.496-17.327-41.829-17.327s-31.188 6.601-41.915 17.327v0l-210.143 248.839c-10.726 10.726-17.327 25.496-17.327 41.829 0 32.757 47.111 59.237 79.865 59.237 16.338 0 31.104-6.601 41.829-17.327v0l147.686-194.138 412.035 412.118c10.726 10.726 25.577 17.327 41.915 17.327 32.672 0 59.157-39.438 59.157-72.111 0-16.338-6.601-31.188-17.327-41.829v0z" />
<glyph unicode="&#xe601;" glyph-name="bold" d="M407.923 701.559h41.565c48.040 0 80.421-5.592 97.007-16.776 16.652-11.116 24.913-30.552 24.913-58.171 0-26.664-8.855-45.35-26.564-56.193-17.775-10.843-50.486-16.23-98.263-16.23h-38.657v147.37zM760.861 221.051c21.519 36.076 23.922 63.899 23.922 102.839 0 54.283-14.207 97.656-42.556 130.117-28.415 32.461-67.734 50.738-118.087 54.693 44.869 12.684 77.513 31.234 97.998 55.716s30.727 57.557 30.727 99.157c0 32.938 0 37.899-22.599 82.857s-106.126 63.729-129.386 68.537c-23.26 4.808-87.69 7.979-167.647 7.979h-194.014v-682.229h342.044c67.13 0 149.004 29.043 179.599 80.334zM407.923 423.798h70.642c47.049 0 79.298-6.070 96.743-18.208 17.379-12.138 26.102-33.553 26.102-64.172 0-27.687-9.515-47.396-28.547-59.194s-51.411-17.731-97.206-17.731h-67.734v159.305z" />
<glyph unicode="&#xe602;" glyph-name="underline" d="M160.342 149.886h703.322v-85.169h-703.322v85.169zM575.36 300.647c16.484 6.955 30.265 16.547 41.338 28.781s19.96 26.786 26.658 43.656c6.696 16.87 12.104 35.351 16.227 55.439l61.043 285.897c0.773 4.38 1.48 8.887 2.125 13.523s0.965 7.985 0.965 10.043c0 5.666-1.416 10.304-4.251 13.909s-6.761 6.377-11.784 8.307c-5.023 1.93-11.074 3.222-18.158 3.864s-14.744 0.965-22.987 0.965h-10.043l8.502 41.725h208.239l-8.887-41.725h-10.043c-8.502 0-16.741-0.58-24.728-1.739s-15.324-3.412-22.022-6.761c-6.696-3.349-12.426-8.244-17.191-14.68s-8.307-14.811-10.624-25.112l-63.36-300.575c-6.182-29.622-15.388-55.762-27.624-78.428s-27.816-41.661-46.747-56.984c-18.932-15.324-41.277-26.915-67.030-34.772s-55.373-11.784-88.859-11.784c-30.907 0-58.21 3.027-81.905 9.078s-43.656 14.938-59.883 26.658c-16.227 11.719-28.526 26.078-36.894 43.078s-12.556 36.316-12.556 57.951c0 4.121 0.257 9.273 0.772 15.454s1.159 12.556 1.93 19.125c0.773 6.568 1.675 13.006 2.706 19.318s2.060 11.784 3.092 16.421l57.952 269.671c3.092 14.166 4.637 23.181 4.637 27.044 0 5.666-1.416 10.304-4.251 13.909s-6.761 6.377-11.784 8.307c-5.023 1.93-11.012 3.222-17.964 3.864s-14.554 0.965-22.795 0.965h-10.431l8.887 41.725h273.531l-8.501-41.725h-10.431c-8.757 0-17.191-0.58-25.305-1.739s-15.518-3.347-22.216-6.568c-6.696-3.222-12.426-7.921-17.191-14.103s-8.307-14.295-10.624-24.342l-59.883-278.554c-1.029-4.637-2.125-9.787-3.284-15.454s-2.188-11.525-3.092-17.579c-0.901-6.051-1.675-12.169-2.318-18.35s-0.965-11.976-0.965-17.384c0-26.529 8.244-46.618 24.728-60.27s40.694-20.477 72.634-20.477c23.956 0 44.171 3.478 60.654 10.431z" />
<glyph unicode="&#xe603;" glyph-name="star" d="M543.937 960c-14.016 0-26.752-8.32-32.512-21.12l-110.528-248.32-277.376-55.424c-12.864-2.624-23.168-12.032-26.944-24.576-3.84-12.416-0.384-25.984 8.896-35.392l193.216-192.64-54.016-275.84c-2.688-13.44 0.832-26.56 11.264-34.88 6.208-4.928 14.208-7.616 22.528-7.616 4.992 0 9.856 1.024 14.272 3.072l251.2 111.168 251.648-111.36c4.288-2.048 9.024-3.072 14.144-3.072 8 0 15.872 2.688 22.016 7.616 10.56 8.32 14.080 21.76 11.52 35.008l-54.144 275.904 193.344 192.64c9.344 9.28 12.8 22.848 8.96 35.328-3.776 12.544-14.208 22.016-27.072 24.64l-277.248 55.424-110.592 248.384c-5.76 12.8-18.496 21.056-32.576 21.056v0 0z" />
<glyph unicode="&#xe604;" glyph-name="right" d="M64.32 832h895.68v-64h-895.68v64zM320.256 640h639.744v-64h-639.744v64zM64.32 448h895.68v-64h-895.68v64zM320.256 256h639.744v-64h-639.744v64z" />
<glyph unicode="&#xe605;" glyph-name="play" d="M738.355 460.357l-390.605-259.594c-9.677-5.711-20.173-8.763-31.386-8.763-33.331 0-60.365 26.831-60.365 60.012v519.975c0 33.132 27.034 60.012 60.365 60.012 11.213 0 21.709-3.052 30.669-8.369 0.717-0.394 391.322-259.988 391.322-259.988 17.766-10.437 29.645-29.637 29.645-51.643s-11.878-41.206-29.645-51.643z" />
<glyph unicode="&#xe606;" glyph-name="pause" d="M256 832h192v-640h-192v640zM576 832h192v-640h-192v640z" />
<glyph unicode="&#xe607;" glyph-name="stop" d="M256 832h512c35.346 0 64-28.654 64-64v-512c0-35.346-28.654-64-64-64h-512c-35.346 0-64 28.654-64 64v512c0 35.346 28.654 64 64 64z" />
<glyph unicode="&#xe608;" glyph-name="order" d="M128 176v128h768v-128h-768zM128 560h768v-128h-768v128zM128 816h768v-128h-768v128z" />
<glyph unicode="&#xe609;" glyph-name="lock" d="M832 512.256v-326.848c0-40-59.264-57.408-59.264-57.408h-520.896c0 0-59.84 23.424-59.84 57.408v326.848h64v192c0 96 158.272 192.128 256.256 192.128 96 0 255.744-96.128 255.744-192.128v-192h64zM640 640.256c0 92.032-62.144 130.56-128 128-67.52-2.688-128-35.84-128-128v-64h256v64zM576 448.256h-128v-192h128v192z" />
<glyph unicode="&#xe60a;" glyph-name="left" d="M64 832h895.68v-64h-895.68v64zM64 640h639.744v-64h-639.744v64zM64 448h895.68v-64h-895.68v64zM64 256h639.744v-64h-639.744v64z" />
<glyph unicode="&#xe60b;" glyph-name="justify" d="M59.972 832h895.68v-64h-895.68v64zM59.972 640h895.68v-64h-895.68v64zM59.972 448h895.68v-64h-895.68v64zM59.908 256h639.808v-64h-639.808v64z" />
<glyph unicode="&#xe60c;" glyph-name="published" d="M512 64c-247.424 0-448 200.576-448 448s200.576 448 448 448c247.424 0 448-200.576 448-448s-200.576-448-448-448v0zM682 678l-234-216c0 0-93 90-105 103-20 17-33 17-50 10-18.855-7.764-47-36.176-47-58 0-10.944 9.68-34.888 16.848-42.056l140.928-145.536c7.168-7.104 17.024-11.584 27.968-11.584s20.8 4.48 27.968 11.584l301.44 277.44c7.168 7.168 11.584 17.024 11.584 27.968 0 21.888-28.848 60.184-50.736 60.184-10.88 0-32.832-9.832-40-17z" />
<glyph unicode="&#xe60d;" glyph-name="info" d="M507.652 0.368c-282.304 0-512 229.696-512 512s229.696 512 512 512c282.304 0 512-229.696 512-512s-229.696-512-512-512v0zM507.652 896.368c-229.376 0-384-154.624-384-384s154.624-384 384-384c229.376 0 384 154.624 384 384s-154.624 384-384 384v0zM443.652 256.368v320h128v-320h-128zM507.652 640.368c-35.328 0-64 28.672-64 64s28.672 64 64 64c35.328 0 64-28.672 64-64s-28.672-64-64-64v0z" />
<glyph unicode="&#xe60e;" glyph-name="hide" d="M791.744 711.872c110.784-94.016 168.32-206.272 168.32-206.272s-129.28-255.168-384.064-319.936c-61.888 1.152-61.888 1.28-127.936 0-48.128 11.392-91.648 29.696-130.624 51.904l-93.056-93.056c-10.176-10.176-24.32-16.512-39.872-16.512-31.232 0-56.512 25.28-56.512 56.448 0 15.616 6.336 29.76 16.576 39.936l79.808 79.872c-107.136 93.056-160.384 201.344-160.384 201.344s127.488 255.168 384.064 320c62.336 0.32 62.464 0 127.936 0 44.352-10.624 84.8-27.648 121.664-48.064l101.952 101.888c10.24 10.24 24.32 16.576 39.936 16.576 31.168 0 56.448-25.28 56.448-56.448 0-15.616-6.336-29.76-16.512-39.936l-87.744-87.744zM512 315.328c106.048 0 192 76.928 192 191.936 0 35.392-8.896 66.56-23.232 93.632l-262.208-262.208c27.776-14.656 59.328-23.36 93.44-23.36v0zM512 699.2c-105.984 0-191.936-76.864-191.936-191.936 0-32.64 7.552-61.824 19.904-87.424l259.264 259.2c-26.304 12.608-55.616 20.16-87.232 20.16v0z" />
<glyph unicode="&#xe60f;" glyph-name="eye" d="M960 511.907c0 0-129.216-255.168-384-320-61.888 1.216-61.888 1.344-128 0-257.792 61.248-384 320-384 320s127.488 255.232 384 320c62.4 0.384 62.464 0.064 128 0 251.968-60.16 384-320 384-320v0zM512 705.507c-106.048 0-192-76.928-192-191.936s85.952-191.936 192-191.936c106.048 0 192 76.928 192 191.936s-85.952 191.936-192 191.936v0zM576 449.571h-128v128h128v-128z" />
<glyph unicode="&#xe610;" glyph-name="edit" d="M958.4 524.352l-0.512-0.064c-1.92 18.816-16.896 33.792-35.648 35.648h-21.952v0.256c-23.552 0-44.032 13.568-53.824 33.28-2.304 4.864-4.16 10.048-5.12 15.616-4.416 12.288-9.408 24.256-15.040 35.968 0 0 0 0-0.064 0.064-2.752 4.16-5.056 8.64-6.784 13.44v0.128c-2.24 6.208-3.392 12.992-3.392 19.968 0 16.512 6.656 31.552 17.6 42.368h-0.128l12.224 12.16c0.128 0.128 0.32 0.256 0.512 0.384 0.064 0.192 0.256 0.384 0.384 0.512 14.208 14.656 14.976 37.44 2.304 52.992l0.192 0.128c-9.344 11.264-19.136 21.952-29.44 32.192-10.496 10.624-21.504 20.544-32.96 30.080l-0.128-0.128c-14.080 11.52-34.24 11.904-48.768 1.28l-8.768-8.768-8.256-8.192-0.384 0.384c-17.472-17.536-43.072-21.952-64.704-13.248-2.944 1.088-5.824 2.56-8.512 4.224-13.824 6.656-28.032 12.544-42.688 17.536-2.624 0.64-5.12 1.472-7.616 2.496 0 0-0.064 0-0.064 0.128-7.168 2.816-13.952 7.232-19.776 13.056-9.792 9.792-15.488 22.144-17.088 34.88-0.64 4.992-0.64 9.984 0 14.976v10.304c0 19.648-14.272 35.968-32.96 39.296-2.304 0.256-4.608 0.448-6.976 0.64h-0.064c-13.248 1.088-26.496 1.664-40 1.664-13.44 0-26.752-0.576-40-1.664v0c-2.368-0.192-4.672-0.384-7.040-0.64-18.688-3.328-32.896-19.648-32.896-39.296v-17.792c0-25.792-16.192-47.744-39.040-56.192-1.408-0.576-2.88-1.024-4.416-1.472-16-5.44-31.488-11.84-46.464-19.264-0.064 0-0.064-0.064-0.128-0.064-1.216-0.64-2.368-1.216-3.648-1.792-7.616-3.456-16-5.44-24.896-5.44-16.576 0-31.552 6.784-42.432 17.536l-0.128-0.064-12.608 12.608c-13.888 13.888-35.456 15.424-51.008 4.608-1.792-1.408-3.584-2.88-5.312-4.352-0.064-0.128-0.128-0.192-0.256-0.256-10.176-8.576-19.968-17.664-29.44-27.072-9.408-9.408-18.432-19.2-27.008-29.312 0 0-0.064 0-0.064-0.064-1.536-1.792-3.072-3.648-4.544-5.504-10.88-15.552-9.344-37.12 4.544-51.008l12.608-12.608c18.176-18.112 22.208-45.056 12.224-67.136-0.64-1.344-1.28-2.752-2.112-4.032-7.36-14.912-13.76-30.4-19.136-46.208-0.448-1.728-1.024-3.392-1.728-4.992 0 0 0 0 0-0.064-2.88-7.616-7.424-14.72-13.568-20.8-11.712-11.712-27.008-17.6-42.368-17.6v-0.128h-17.92c-19.648 0-36.032-14.208-39.36-32.896-0.256-2.304-0.448-4.672-0.64-7.040v0c-1.088-12.928-1.664-26.816-1.664-40v0-0.576c0-13.312 0.576-26.368 1.664-39.296v-0.064c0.192-2.304 0.384-4.672 0.64-6.976 3.328-18.752 19.648-32.96 39.296-32.96h17.984c25.536 0 47.296-15.936 55.936-38.4v-0.128c0.576-1.472 1.152-3.008 1.472-4.48 0.128-0.064 0.128-0.128 0.192-0.32 5.376-15.872 11.84-31.424 19.2-46.4 0.064-0.064 0.128-0.128 0.128-0.192 0.704-1.152 1.216-2.368 1.792-3.584 3.52-7.616 5.44-16.128 5.44-24.96 0-16.512-6.656-31.552-17.536-42.368l0.064-0.064-12.224-12.224c-0.128-0.128-0.32-0.256-0.448-0.448-0.192-0.192-0.32-0.32-0.448-0.512-13.312-13.696-14.848-34.624-4.48-49.984 1.728-2.176 3.52-4.288 5.248-6.336 8.512-10.048 17.472-19.712 26.816-29.056v0c9.408-9.344 19.136-18.368 29.248-26.88 2.048-1.728 4.032-3.456 6.080-5.12 13.888-9.344 32.32-9.024 45.888 0.896l8.768 8.768 8.256 8.192 0.32-0.32c18.176 18.112 45.184 22.208 67.328 12.096 1.152-0.448 2.304-1.024 3.328-1.6 0.064-0.128 0.192-0.128 0.32-0.192 15.040-7.488 30.656-13.952 46.784-19.456 1.408-0.32 2.752-0.832 4.096-1.344 7.872-2.944 15.296-7.488 21.632-13.824 11.712-11.712 17.536-26.944 17.536-42.304h0.192v-17.472c0-20.672 15.68-37.696 35.84-39.744v-0.256c14.528-1.408 29.248-2.048 44.096-2.048 14.912 0 29.568 0.64 44.096 2.048l-0.064 0.256c20.16 2.048 35.968 19.072 35.968 39.744v17.728c0 24.128 14.144 44.864 34.56 54.336 4.16 1.984 8.512 3.456 13.12 4.416 13.12 4.608 25.92 9.92 38.4 15.872 3.52 2.368 7.424 4.352 11.52 5.824 6.528 2.432 13.568 3.776 20.992 3.776 15.232 0 29.12-5.632 39.744-15.104 1.792-1.536 3.52-3.2 5.184-5.12l10.176-10.24 0.064 0.128c14.080-14.080 36.096-15.488 51.712-4.16 0.064 0 0.128 0.064 0.192 0.128 1.28 1.088 2.56 2.112 3.776 3.2 10.496 8.832 20.608 18.112 30.272 27.776 9.728 9.664 18.944 19.712 27.84 30.208 1.152 1.408 2.24 2.752 3.392 4.16 11.008 15.040 10.048 36.032-2.688 50.112h-0.064l-2.816 2.88-11.2 11.2c-17.856 17.856-22.080 44.224-12.672 66.112 0.896 1.984 1.856 4.032 3.008 5.952 7.104 14.4 13.312 29.376 18.56 44.736 0.576 2.048 1.216 4.032 2.048 6.016 2.88 7.424 7.36 14.464 13.376 20.544 11.712 11.648 27.008 17.472 42.432 17.472v0.064h17.216v0.256c21.376 0 38.848 16.832 39.936 37.888l0.576-0.064c1.152 13.76 1.792 27.776 1.792 41.792 0 14.976-0.704 29.696-2.048 44.352v0zM725.568 480v0c0-27.904-4.608-54.848-13.248-79.872-3.2-9.536-7.104-18.816-11.456-27.776-11.968-24.512-27.968-46.784-46.976-65.984-19.136-19.136-41.344-35.136-65.856-47.232-9.088-4.48-18.432-8.32-28.032-11.712-25.088-8.704-52.032-13.376-80-13.44h-0.704c-27.776 0-54.336 4.544-79.232 12.992-9.984 3.328-19.712 7.36-28.992 11.968-24.448 11.904-46.592 27.776-65.6 46.72-19.2 19.072-35.264 41.28-47.296 65.728-4.544 9.28-8.576 18.88-11.968 28.736-8.512 24.896-13.184 51.584-13.248 79.296 0.064 27.776 4.736 55.616 13.248 80.512 3.392 9.856 7.424 19.456 11.968 28.672 12.096 24.576 28.096 46.72 47.296 65.792s41.472 35.072 66.048 47.040c9.152 4.416 18.688 8.32 28.544 11.712 24.896 8.448 51.456 12.928 79.232 12.928h0.704c27.968-0.064 54.912-4.8 80-13.44 9.6-3.328 18.944-7.232 27.968-11.712 24.576-12.096 46.784-28.096 65.856-47.232 19.008-19.072 34.816-41.152 46.784-65.536 4.48-9.088 8.384-18.56 11.712-28.224 8.576-24.96 13.248-51.776 13.248-79.616v-0.32z" />
<glyph unicode="&#xe611;" glyph-name="duplicate" d="M904 960h-520l-64-64.064v-191.936h-192l-64-64v-512l64-64h512l64 64v192h192l64 64v511.936l-56 64.064zM576 192h-384v384h128v-192l64-64h192v-128zM832 448h-384v384h384v-384z" />
<glyph unicode="&#xe612;" glyph-name="delete" d="M64 831.936v-127.936h64v-640l64-64h640l64 64v640h64v127.936h-192v128.064l-64 64h-384l-64-64v-128.064h-192zM256 704h512v-576h-512v576zM320 640h128v-448h-128v448zM576 640h128v-448h-128v448zM384 896h256v-64.064h-256v64.064z" />
<glyph unicode="&#xe613;" glyph-name="close" d="M775.936 344.128c6.4-6.464 9.664-13.824 9.664-22.144s-3.264-15.744-9.664-22.080l-51.328-53.952c-6.4-6.464-13.952-9.664-22.656-9.664-8.64 0-16.064 3.2-22.272 9.664l-157.888 160-158.528-160c-6.464-6.464-13.824-9.664-22.144-9.664s-15.744 3.2-22.144 9.664l-53.376 51.264c-6.464 6.4-9.6 13.888-9.6 22.464 0 8.448 3.136 16 9.6 22.464l159.296 161.664-159.296 156.352c-6.464 6.464-9.6 13.888-9.6 22.464s3.136 16 9.6 22.4l53.376 53.312c6.4 6.464 13.952 9.664 22.656 9.664 8.576 0 16.064-3.2 22.272-9.664l157.888-157.696 157.888 157.696c6.4 6.464 13.952 9.664 22.528 9.664 8.448 0 16-3.2 22.4-9.664l51.328-53.312c6.4-6.4 9.664-13.888 9.664-22.592 0-8.64-3.264-16.064-9.664-22.272l-157.248-159.68 157.248-156.352z" />
<glyph unicode="&#xe614;" glyph-name="center" d="M64.128 832h895.744v-64h-895.744v64zM192.128 640h639.744v-64h-639.744v64zM64.128 448h895.744v-64h-895.744v64zM192.128 256h639.744v-64h-639.744v64z" />
<glyph unicode="&#xe615;" glyph-name="italic" d="M732.494 822.245l-8.167-39.017h-12.25c-29.64 0-50.966-5.595-63.971-16.787s-21.778-27.827-26.315-49.908l-96.184-455.507c-2.722-13.006-4.084-21.626-4.084-25.861 0-24.802 22.382-37.203 67.146-37.203h11.797l-8.167-39.017h-270.4l7.26 39.017h12.25c51.419 0 81.815 22.232 91.192 66.693l96.638 455.507c2.421 11.493 3.629 20.114 3.629 25.861 0 24.802-22.382 37.203-67.146 37.203h-11.797l8.167 39.017h270.4z" />
<glyph unicode="&#xe616;" glyph-name="v-tablet" d="M832 29.056h-640c-26.688 0-64 29.312-64 64v832c0 33.696 32.32 64 64 64h640c34.688 0 64-32.32 64-64v-832c0-33.696-30.304-64-64-64v0zM800 861.056v-608c0-20.288-32-32-32-32h-512c0 0-32 12.096-32 32.992v607.008c0 15.328 15.648 32 32 32h512c16.352 0 32-14.656 32-32zM544 125.056h-64v64h64v-64zM832 925.056h-640v-832h640v832zM288 285.056h448v544h-448v-544z" />
<glyph unicode="&#xe617;" glyph-name="v-mobile" d="M736 29.056h-448c-33.696 0-64 29.312-64 64v832c0 31.68 33.312 64 64 64h448c32.704 0 64-33.312 64-64v-832c0-31.712-32.32-64-64-64v0zM736 893.056c0 23.328-10.656 32-32 32h-384c-26.336 0-32-7.648-32-32v-32h448v32zM736 797.056h-448v-512h448v512zM736 221.056h-448v-96c0-26.368 3.648-34.016 32-32h384c31.36 0.992 32-1.344 32 32v96zM512 125.056c-35.328 0-32-3.36-32 32s-3.328 32 32 32c35.36 0 32 3.36 32-32s3.36-32-32-32v0z" />
<glyph unicode="&#xe618;" glyph-name="v-desktop" d="M928 157.056h-288v-64h96v-64h-448v64h96v64h-288c-70.688 0-96 25.312-96 96v640c0 70.688 25.312 96 96 96h832c70.688 0 96-25.312 96-96v-640c0-70.688-25.312-96-96-96v0zM576 93.056v64h-128v-64h128zM960 925.056h-736v-64h672c19.776 0 32-32 32-32v-480.256c0-20-32-31.744-32-31.744h-768c0 0-32 11.328-32 30.624v481.376l32 32h96v64h-160v-704h896v704zM160 797.056v-416h704v416h-704z" />
<glyph unicode="&#xe619;" glyph-name="v-all" d="M512 160c-318.144 0-480 192-512 352 32 160 193.856 352 512 352s480-192 512-352c-32-160-193.856-352-512-352v0zM512 800c-251.2 0-408.96-158.112-448-288 39.040-129.92 196.8-288 448-288s408.96 158.080 448 288c-39.040 129.888-196.8 288-448 288v0zM512 352c-97.056 0-160 62.944-160 160 0 96.064 64.928 160 160 160 93.056 0 160-64.96 160-160 0-95.072-64.928-160-160-160v0zM512 608c-52.928 0-96-43.072-96-96s43.072-96 96-96c52.928 0 96 43.072 96 96s-43.072 96-96 96v0z" />
<glyph unicode="&#xe61a;" glyph-name="smart" d="M842.368 640.48l-298.368 159.52h-64l-298.368-159.52c-12.832-6.368-21.632-19.552-21.632-34.752 0-15.232 8.8-28.416 21.632-34.784l17.472-8.704v-136.768c-11.648-6.752-19.552-19.136-19.552-33.472 0-21.472 17.536-38.848 39.104-38.848 21.6 0 39.136 17.376 39.136 38.848 0 14.336-7.904 26.72-19.552 33.472v117.344l49.76-30.816v-128c0-75.104 105.184-128 224-128s224 52.896 224 128v128l106.368 58.944c12.832 6.368 21.632 19.552 21.632 34.784 0 15.2-8.8 28.384-21.632 34.752v0zM672 384c0-30.944-96.896-64-160-64s-160 33.056-160 64v96l128-64h64l128 64v-96zM512 480l-256 128 256 131.424 256-131.424-256-128z" />
<glyph unicode="&#xe61b;" glyph-name="slider" d="M852.352 192h-680.704c-38.4 0-75.648 38.208-75.648 75.296v489.408c0 35.936 36.032 75.296 75.648 75.296h680.704c36.096 0 75.648-38.208 75.648-75.296v-489.408c0-37.088-39.552-75.296-75.648-75.296v0zM864 768h-704v-512h704v512zM474.176 606.112l62.784-101.632c1.024-1.6 2.304-3.040 3.776-4.384 4.256-3.808 2.72-44.576 9.088-44.576 6.688 0 20.064 41.056 24.384 45.344 0.832 0.832 1.632 1.728 2.368 2.72l48.896 27.232c10.688 12.352 36.224 1.856 37.792 0l103.584-162.016 1.152-48.8h-512v64l180.384 222.112c12.832 14.944 24.96 14.912 37.792 0v0zM701.088 568.48l-37.824 37.632v37.664l37.824 37.632h37.824l37.824-37.632v-37.664l-37.824-37.632h-37.824z" />
<glyph unicode="&#xe61c;" glyph-name="s-open" d="M848 736h-704c-26.496 0-48 21.504-48 48s21.504 48 48 48h704c26.496 0 48-21.504 48-48s-21.504-48-48-48v0zM144 640h416c26.496 0 48-21.504 48-48s-21.504-48-48-48h-416c-26.496 0-48 21.504-48 48s21.504 48 48 48v0zM144 448h416c26.496 0 48-21.504 48-48s-21.504-48-48-48h-416c-26.496 0-48 21.504-48 48s21.504 48 48 48v0zM725.664 351.84c-5.856 0-10.944 1.76-15.232 5.312-4.224 3.488-6.336 7.712-6.336 12.544v252.608c0 4.864 2.144 9.024 6.496 12.576 4.352 3.488 9.376 5.248 15.072 5.248 6.112 0 11.296-1.792 15.52-5.408l148.256-126.176c4.224-2.816 6.368-6.944 6.368-12.448 0-5.152-2.144-9.504-6.368-13.088l-148.256-125.76c-4.224-3.584-9.408-5.408-15.52-5.408v0zM144 256h704c26.496 0 48-21.504 48-48s-21.504-48-48-48h-704c-26.496 0-48 21.504-48 48s21.504 48 48 48v0z" />
<glyph unicode="&#xe61d;" glyph-name="s-close" d="M848 352h-416c-26.496 0-48 21.504-48 48s21.504 48 48 48h416c26.496 0 48-21.504 48-48s-21.504-48-48-48v0zM848 544h-416c-26.496 0-48 21.504-48 48s21.504 48 48 48h416c26.496 0 48-21.504 48-48s-21.504-48-48-48v0zM848 736h-704c-26.496 0-48 21.504-48 48s21.504 48 48 48h704c26.496 0 48-21.504 48-48s-21.504-48-48-48v0zM250.816 357.248l-148.256 125.76c-4.224 3.584-6.368 7.936-6.368 13.088 0 5.504 2.144 9.632 6.368 12.448l148.256 126.176c4.224 3.616 9.408 5.408 15.52 5.408 5.696 0 10.72-1.76 15.072-5.248 4.352-3.552 6.496-7.712 6.496-12.576v-252.608c0-4.832-2.112-9.056-6.336-12.544-4.288-3.552-9.376-5.312-15.232-5.312-6.112 0-11.296 1.824-15.52 5.408v0zM144 256h704c26.496 0 48-21.504 48-48s-21.504-48-48-48h-704c-26.496 0-48 21.504-48 48s21.504 48 48 48v0z" />
<glyph unicode="&#xe61e;" glyph-name="next" d="M251.008 288.571c-14.912 0-27.008 12.864-27.008 28.736 0 175.168 126.912 319.36 288 333.984v87.392c0 11.072 5.984 21.152 15.36 25.952 9.408 4.736 20.512 3.392 28.608-3.584l233.984-201.12c6.368-5.44 10.048-13.664 10.048-22.368 0-8.672-3.68-16.896-10.048-22.336l-233.984-201.12c-8.064-6.944-19.2-8.352-28.608-3.584-9.376 4.8-15.36 14.88-15.36 25.952v85.6c-151.68-6.912-233.984-70.976-233.984-104.768 0-15.872-12.096-28.736-27.008-28.736v0zM539.008 480.123c14.912 0 27.008-12.864 27.008-28.736v-54.784l164 140.96-164 140.992v-54.784c0-15.872-12.096-28.736-27.008-28.736-109.312 0-203.168-71.904-241.984-173.6 57.856 35.84 144.832 58.688 241.984 58.688v0z" />
<glyph unicode="&#xe61f;" glyph-name="n-success" d="M512 0c-282.752 0-512 229.248-512 512s229.248 512 512 512c282.752 0 512-229.248 512-512s-229.248-512-512-512v0zM512 928c-229.376 0-416-186.624-416-416s186.624-416 416-416c229.376 0 416 186.624 416 416s-186.624 416-416 416v0zM497.952 334.048c-9.376-9.344-21.664-14.048-33.952-14.048s-24.544 4.704-33.92 14.048l-128 128.032c-9.888 9.856-14.24 22.912-13.696 35.84 0.48 11.616 4.8 23.136 13.696 32 8.864 8.896 20.384 13.248 32.032 13.696 12.896 0.544 25.952-3.808 35.84-13.696l94.048-94.048 222.080 222.080c9.856 9.856 22.944 14.208 35.84 13.664 11.616-0.48 23.136-4.8 32.032-13.664 8.864-8.896 13.216-20.416 13.696-32.032 0.512-12.928-3.84-25.984-13.696-35.872l-256-256z" />
<glyph unicode="&#xe620;" glyph-name="n-notice" d="M512-2.944c-282.304 0-512 229.696-512 512s229.696 512 512 512c282.304 0 512-229.696 512-512s-229.696-512-512-512v0zM512 925.056c-229.376 0-416-186.624-416-416s186.624-416 416-416c229.408 0 416 186.624 416 416s-186.592 416-416 416v0zM512 253.056c-35.328 0-64 28.672-64 64v192c0 35.328 28.672 64 64 64 35.36 0 64-28.672 64-64v-192c0-35.328-28.64-64-64-64v0zM512 637.056c-35.328 0-64 28.672-64 64 0 35.36 28.672 64 64 64 35.36 0 64-28.64 64-64 0-35.328-28.64-64-64-64v0z" />
<glyph unicode="&#xe621;" glyph-name="n-error" d="M938.688 61.056h-853.344c-47.104 0-85.344 37.632-85.344 84 0 15.264 4.16 29.568 11.36 41.888l426.688 728c14.752 25.152 42.336 42.112 73.952 42.112s59.232-16.96 73.984-42.112l426.656-728c7.232-12.32 11.36-26.624 11.36-41.888 0-46.368-38.208-84-85.312-84v0zM512.064 872.96l-0.064 0.096h-0.064l-415.936-716h832l-415.936 715.904zM512 341.056c31.424 0 56.896-25.088 56.896-56 0-30.944-25.472-56-56.896-56-31.392 0-56.896 25.056-56.896 56 0 30.912 25.504 56 56.896 56v0zM540.064 420.352c-2.272-13.248-13.984-23.296-28.064-23.296s-25.76 10.048-28.064 23.296l-28 163.296c-0.544 3.072-0.832 6.208-0.832 9.408 0 30.912 25.504 56 56.896 56 31.424 0 56.896-25.088 56.896-56 0-3.2-0.288-6.336-0.8-9.408l-28.032-163.296z" />
<glyph unicode="&#xe622;" glyph-name="n-close" d="M575.696 512.192l211.040-211.232c17.6-17.6 17.6-46.144 0-63.744-8.8-8.832-20.32-13.216-31.872-13.216-11.52 0-23.040 4.384-31.84 13.216l-211.040 211.2-211.008-211.2c-8.832-8.832-20.352-13.216-31.872-13.216s-23.040 4.384-31.84 13.216c-17.6 17.6-17.6 46.144 0 63.744l211.040 211.232-211.040 211.2c-17.6 17.6-17.6 46.176 0 63.776s46.112 17.6 63.712 0l211.008-211.232 211.040 211.232c17.6 17.6 46.112 17.6 63.712 0s17.6-46.176 0-63.776l-211.040-211.2z" />
<glyph unicode="&#xe623;" glyph-name="drag" d="M816 432c-44.192 0-80 35.808-80 80s35.808 80 80 80c44.192 0 80-35.808 80-80s-35.808-80-80-80v0zM496 432c-44.192 0-80 35.808-80 80s35.808 80 80 80c44.192 0 80-35.808 80-80s-35.808-80-80-80v0zM176 432c-44.192 0-80 35.808-80 80s35.808 80 80 80c44.192 0 80-35.808 80-80s-35.808-80-80-80v0z" />
<glyph unicode="&#xe624;" glyph-name="a-text" d="M512 0c-282.784 0-512 229.216-512 512s229.216 512 512 512c282.784 0 512-229.216 512-512s-229.216-512-512-512v0zM512 960c-247.424 0-448-200.576-448-448s200.576-448 448-448c247.424 0 448 200.576 448 448s-200.576 448-448 448v0zM640 640l-96 0.992v-288.992h96v-64h-256v64h96v288.992l-96-0.992v-96h-64v160h384v-160h-64v96z" />
<glyph unicode="&#xe625;" glyph-name="a-refresh" d="M512 0c-282.784 0-512 229.216-512 512s229.216 512 512 512c282.784 0 512-229.216 512-512s-229.216-512-512-512v0zM512 960c-247.424 0-448-200.576-448-448s200.576-448 448-448c247.424 0 448 200.576 448 448s-200.576 448-448 448v0zM608 544h64c-4.448 81.76-78.624 139.744-163.136 139.744-44.064 0-83.904-17.728-112.608-46.24l-44.256 34.496c38.752 42.752 93.952 64 156.864 64 113.984 0 222.688-81.312 227.136-192h64l-96-128-96 128zM352 480c4.448-81.76 72.352-139.712 156.864-139.712 44.096 0 83.904 17.696 112.608 46.208l50.528-34.496c-38.752-42.752-100.224-63.968-163.136-63.968-113.984 0-216.416 81.28-220.864 191.968h-64l96 128 96-128h-64z" />
<glyph unicode="&#xe626;" glyph-name="a-html" d="M512 0c-282.784 0-512 229.216-512 512s229.216 512 512 512c282.784 0 512-229.216 512-512s-229.216-512-512-512v0zM512 960c-247.424 0-448-200.576-448-448s200.576-448 448-448c247.424 0 448 200.576 448 448s-200.576 448-448 448v0zM791.808 491.904l-107.968-111.968c-4.864-4.896-11.456-7.936-18.784-7.936-14.88 0-26.976 12.544-26.976 28 0 7.584 2.944 14.432 7.648 19.488l-0.032 0.032 89.024 92.32-88.704 92.096c-5.056 5.088-8.224 12.192-8.224 20.064 0 15.456 12.096 28 27.008 28 7.584 0 14.432-3.296 19.328-8.512l0.032 0.032 106.368-110.4c5.76-5.12 9.472-12.64 9.472-21.12 0-7.872-3.168-14.976-8.192-20.064v-0.032zM416 320l128 384h64l-128-384h-64zM378.016 603.904l-88.736-92.064 88.992-92.352c4.736-5.056 7.648-11.904 7.648-19.488 0-15.456-12.064-28-26.976-28-7.328 0-13.92 3.040-18.784 7.936l-0.032-0.032-107.904 112.032c-5.056 5.088-8.224 12.192-8.224 20.064 0 8.48 3.712 16 9.472 21.12l106.4 110.368c4.928 5.216 11.744 8.512 19.328 8.512 14.912 0 27.008-12.544 27.008-28 0-7.872-3.168-14.976-8.224-20.064l0.032-0.032z" />
<glyph unicode="&#xe627;" glyph-name="a-export" d="M512 0c-282.784 0-512 229.216-512 512s229.216 512 512 512c282.784 0 512-229.216 512-512s-229.216-512-512-512v0zM512 960c-247.424 0-448-200.576-448-448s200.576-448 448-448c247.424 0 448 200.576 448 448s-200.576 448-448 448v0zM824.992 494.4l-88.992-78.4c0 0-32-0.704-32 13.024 0 6.88 2.688 13.088 7.040 17.6l24.96 33.376h-288v64h288l-24.96 33.344c-4.352 4.512-7.040 10.752-7.040 17.6 0 13.76 32 13.056 32 13.056l88.992-78.4c4.32-4.512 7.008-10.72 7.008-17.6s-2.688-13.088-7.008-17.6v0zM608 576v64h-224v-256h224v64h64v-94.816l-32-33.184h-288l-32 33.184v317.632l32 33.184h288l32-33.184v-94.816h-64z" />
<glyph unicode="&#xe628;" glyph-name="a-duplicate" d="M512 0c-282.784 0-512 229.216-512 512s229.216 512 512 512c282.784 0 512-229.216 512-512s-229.216-512-512-512v0zM512 960c-247.424 0-448-200.576-448-448s200.576-448 448-448c247.424 0 448 200.576 448 448s-200.576 448-448 448v0zM608 416v-96l-32-32h-256l-32 32v256l32 32h96v96l32 32h260l28-32v-256l-32-32h-96zM416 448v96h-64v-192h192v64h-96l-32 32zM672 672h-192v-192h192v192z" />
<glyph unicode="&#xe629;" glyph-name="a-deletes" d="M512 0c-282.784 0-512 229.216-512 512s229.216 512 512 512c282.784 0 512-229.216 512-512s-229.216-512-512-512v0zM512 960c-247.424 0-448-200.576-448-448s200.576-448 448-448c247.424 0 448 200.576 448 448s-200.576 448-448 448v0zM694.848 328.8c-5.888-5.856-18.56-13.792-26.24-13.792s-15.36 2.912-21.248 8.8l-135.68 136.64-135.68-136.64c-5.888-5.888-13.568-8.8-21.248-8.8s-20.352 7.936-26.208 13.792c-11.744 11.744-16.736 35.776-5.024 47.52l136.288 136.384-136.288 137.248c-11.712 11.712-6.72 33.76 5.024 45.504 11.712 11.712 35.712 16.736 47.456 4.992l135.68-135.808 135.68 135.808c11.744 11.744 35.744 6.72 47.488-4.992 11.712-11.744 16.704-33.792 4.992-45.504l-136.288-137.248 136.288-136.384c11.712-11.744 6.72-35.776-4.992-47.52v0z" />
<glyph unicode="&#xe62a;" glyph-name="a-delete" d="M512 0c-282.784 0-512 229.216-512 512s229.216 512 512 512c282.784 0 512-229.216 512-512s-229.216-512-512-512v0zM512 960c-247.424 0-448-200.576-448-448s200.576-448 448-448c247.424 0 448 200.576 448 448s-200.576 448-448 448v0zM704 288l-32-32h-320l-32 32v320h-32v64h96v64l32 32h192l32-32v-64h96v-64h-32v-320zM576 704h-128v-32h128v32zM640 608h-256v-288h256v288zM480 352h-64v224h64v-224zM608 352h-64v224h64v-224z" />
<glyph unicode="&#xe62b;" glyph-name="a-back" d="M512 0c-282.784 0-512 229.216-512 512s229.216 512 512 512c282.784 0 512-229.216 512-512s-229.216-512-512-512v0zM512 960c-247.424 0-448-200.576-448-448s200.576-448 448-448c247.424 0 448 200.576 448 448s-200.576 448-448 448v0zM578.016 317.984c-7.552 0-14.4 2.944-19.456 7.712v0l-168 166.56c-5.28 4.992-6.56 12-6.56 19.744v0.128c0 7.744 1.28 14.752 6.56 19.744v0l168.064 166.496c5.024 4.736 11.872 7.616 19.392 7.616 15.456 0 31.968-16.256 31.968-31.424 0-8.32-3.776-15.776-9.76-20.8l-148.704-141.696 150.624-143.616c4.864-4.928 7.84-11.616 7.84-19.008 0-15.168-16.512-31.456-31.968-31.456v0z" />
<glyph unicode="&#xe62c;" glyph-name="empty" d="M512 0c-282.752 0-512 229.248-512 512s229.248 512 512 512c282.752 0 512-229.248 512-512s-229.248-512-512-512v0zM512 896c-212.096 0-384-171.904-384-384s171.904-384 384-384c212.096 0 384 171.904 384 384s-171.904 384-384 384v0zM703.872 381.952c0-6.016-2.368-11.392-6.976-16l-37.184-38.912c-4.672-4.672-10.112-6.976-16.384-6.976s-11.712 2.304-16.192 6.976l-114.368 115.456-114.88-115.456c-4.672-4.672-10.048-6.976-16-6.976-6.080 0-11.456 2.304-16.064 6.976l-38.656 36.992c-4.672 4.608-6.976 10.048-6.976 16.192s2.304 11.584 6.976 16.256l115.392 116.672-115.392 112.896c-4.672 4.608-6.976 10.048-6.976 16.192s2.304 11.584 6.976 16.192l38.656 38.464c4.608 4.672 10.112 6.976 16.384 6.976s11.648-2.304 16.128-6.976l114.432-113.856 114.368 113.856c4.672 4.672 10.112 6.976 16.32 6.976 6.144 0 11.584-2.304 16.256-6.976l37.184-38.464c4.608-4.608 6.976-10.048 6.976-16.32s-2.368-11.648-6.976-16.064l-113.92-115.264 113.92-112.896c4.608-4.608 6.976-9.984 6.976-15.936v0z" />
<glyph unicode="&#xe62d;" glyph-name="unpublished" d="M512 64c-247.424 0-448 200.576-448 448s200.576 448 448 448c247.424 0 448-200.576 448-448s-200.576-448-448-448v0zM620 705l-108-114-107 114c-86 0-86 0-86-84l112-109-112-111c0-81.064 0-81.064 86-81.064l107 111.064 108-111.064c84.064 0 84.064 0 84.064 81.064 6.144 0-112.064 111-112.064 111l112.064 109c0 84 0 84-84.064 84z" />
<glyph unicode="&#xe62e;" glyph-name="snapcenter" d="M894.016 64h-768l-62.016 64v768l59.968 64h772.032l64-64v-768l-65.984-64zM832 832h-640v-640h640v640zM704 320h-384v384h384v-384z" />
<glyph unicode="&#xe62f;" glyph-name="snapgrid" d="M64 960h256v-256h-256v256zM384 960h256v-256h-256v256zM704 960h256v-256h-256v256zM64 640h256v-256h-256v256zM384 640h256v-256h-256v256zM704 640h256v-256h-256v256zM64 320h256v-256h-256v256zM384 320h256v-256h-256v256zM704 320h256v-256h-256v256z" />
<glyph unicode="&#xe630;" glyph-name="snaplayer" d="M894.016 64h-254.016c-23.168 0-64 40.832-64 64v766.016c0 23.168 40.832 65.984 64 65.984h256c23.168 0 64-40.768 64-64v-768c0-23.168-42.816-64-65.984-64v0zM832 832h-128v-640h128v640zM446.016 64h-318.016c-23.168 0-64 40.832-64 64v318.016c0 23.168 40.832 65.984 64 65.984h320c23.168 0 64-40.768 64-64v-320c0-23.168-42.816-64-65.984-64v0zM384 384h-192v-192h192v192zM446.016 576h-318.016c-23.168 0-64 40.832-64 64v254.016c0 23.168 40.832 65.984 64 65.984h320c23.168 0 64-40.768 64-64v-256c0-23.168-42.816-64-65.984-64v0zM384 832h-192v-128h192v128z" />
<glyph unicode="&#xe631;" glyph-name="snapnone" d="M512 64c-247.424 0-448 200.576-448 448s200.576 448 448 448c247.424 0 448-200.576 448-448s-200.576-448-448-448v0zM192 512c0-201.024 118.976-320 320-320 85.376 0 113.92 0.768 176 49.984l-449.984 448c-49.216-62.080-46.016-92.608-46.016-177.984v0zM512 832c-131.392 0-115.904 5.184-177.984-44.032l448-449.984c49.216 62.080 49.984 88.64 49.984 174.016 0 189.056-134.976 320-320 320v0z" />
<glyph unicode="&#xe632;" glyph-name="plus" d="M832 448h-256v-256h-128v256h-256v128h256v256h128v-256h256v-128z" />
<glyph unicode="&#xe633;" glyph-name="minus" d="M192 576h640v-128h-640v128z" />
<glyph unicode="&#xe634;" glyph-name="bulk" d="M704 800h-384c-53.024 0-96-42.976-96-96v-384c0-53.024 42.976-96 96-96h384c53.024 0 96 42.976 96 96v384c0 53.024-42.976 96-96 96zM320 704.395h385.93v-384.918l-385.93 0.918v384z" />
<glyph unicode="&#xe635;" glyph-name="list" d="M320 192v128h640v-128h-640zM960 576v-128h-640v128h640zM320 832h640v-128h-640v128zM64 320h128v-128h-128v128zM64 576h128v-128h-128v128zM64 832h128v-128h-128v128z" />
<glyph unicode="&#xe636;" glyph-name="link" d="M512.656 482.16c15.68 35.008 9.152 77.504-19.584 106.176l-33.6 33.664c-37.184 37.12-97.408 37.12-134.592 0l-182.144-182.144c-37.184-37.184-37.184-97.408 0-134.592l42.56-45.504c37.184-37.184 73.6-40.128 128.64 8.896l46.144 53.12 68.8-65.792-84.288-85.248c-55.744-55.744-146.112-55.744-201.856 0l-100.928 100.864c-55.744 55.744-55.744 146.112 0 201.856l249.408 249.472c55.744 55.744 146.112 55.744 201.856 0l100.928-100.928c55.744-55.744 55.744-146.112 0-201.856l-81.344 62.016zM475.984 491.568c-4.928-29.376-36.864-47.744 21.44-91.2l41.728-37.568c37.184-37.12 97.408-37.12 134.528 0l164.352 170.304c37.12 37.12 37.12 97.344 0 134.528l-33.664 33.664c-37.12 37.12-97.408 37.12-134.592 0l-29.76-32.768-67.008 64.064c58.624 58.624 54.656 57.6 54.656 57.6 55.744 55.744 146.112 55.744 201.856 0l100.928-100.928c0 0 79.488-110.4 0-201.856l-225.664-225.6c-55.744-55.744-146.112-55.744-201.856 0l-100.928 100.864c-55.744 55.744-55.744 146.112 0 201.856l73.984-72.96z" />
<glyph unicode="&#xe637;" glyph-name="notification" d="M736 320h-448c-17.664 0-32 14.336-32 32s14.336 32 32 32h32v192c0 84.928 55.52 156.16 131.968 181.472 8.864 24.736 32.256 42.528 60.032 42.528s51.168-17.792 60.032-42.528c76.448-25.312 131.968-96.544 131.968-181.472v-192h32c17.664 0 32-14.336 32-32s-14.336-32-32-32v0zM512 224c-35.36 0-64 28.64-64 64h128c0-35.36-28.64-64-64-64v0z" />
<glyph unicode="&#xe638;" glyph-name="buttonarrow" d="M512 704h329.152c30.272 0 54.848-25.088 54.848-56 0-15.104-5.888-28.8-15.36-38.848v-0.064l-329.152-335.936c-9.984-10.56-24-17.152-39.488-17.152h-0.256c-15.488 0-29.504 6.592-39.488 17.152v-0.064l-329.024 336.192c-9.408 10.048-15.232 23.68-15.232 38.72 0 30.912 24.576 56 54.848 56-114.176 0 329.152 0 329.152 0v0z" />
<glyph unicode="&#xe639;" glyph-name="more" d="M448 384c-70.72 0-128 57.28-128 128s57.28 128 128 128c70.72 0 128-57.28 128-128s-57.28-128-128-128v0zM448 768c-70.72 0-128 57.28-128 128s57.28 128 128 128c70.72 0 128-57.28 128-128s-57.28-128-128-128v0zM448 256c70.72 0 128-57.28 128-128s-57.28-128-128-128c-70.72 0-128 57.28-128 128s57.28 128 128 128v0z" />
<glyph unicode="&#xe63a;" glyph-name="v-tablet-landscape" d="M992 832v-640c0-26.688-29.312-64-64-64h-832c-33.696 0-64 32.32-64 64v640c0 34.688 32.32 64 64 64h832c33.696 0 64-30.304 64-64v0zM160 800h608c20.288 0 32-32 32-32v-512c0 0-12.096-32-32-32h-608c-15.328 0-32 15.648-32 32v512c0 16.352 14.656 32 32 32zM896 544v-64h-64v64h64zM96 832v-640h832v640h-832zM736 288v448h-544v-448h544z" />
<glyph unicode="&#xe63b;" glyph-name="v-mobile-landscape" d="M992 736v-448c0-33.696-29.312-64-64-64h-832c-31.68 0-64 33.312-64 64v448c0 32.704 33.312 64 64 64h832c31.712 0 64-32.32 64-64v0zM128 736c-23.328 0-32-10.656-32-32v-384c0-26.336 7.648-32 32-32h32v448h-32zM224 736v-448h512v448h-512zM800 736v-448h96c26.076 0 33.706 3.648 32 32-0.305 0-0.305 384 0 384-1.295 31.36 1.036 32-32 32h-96zM896 512c-0.085-35.236 3.266-31.917-32-32-35.266 0.083-31.915-3.236-32 32 0.085 35.266-3.266 31.915 32 32 35.266-0.085 31.915 3.266 32-32v0z" />
<glyph unicode="&#xe63c;" glyph-name="v-desktop-landscape" d="M928 160h-288v-64h96v-64h-448v64h96v64h-288c-70.688 0-96 25.312-96 96v640c0 70.688 25.312 96 96 96h832c70.688 0 96-25.312 96-96v-640c0-70.688-25.312-96-96-96v0zM576 96v64h-128v-64h128zM960 928h-736v-64h672c19.776 0 32-32 32-32v-480c0-20.256-32-32-32-32h-768c0 0-32 11.328-32 32v480l32 32h96v64h-160v-704h896v704zM160 800v-416h704v416h-704zM416 480h192v-64h-192v64zM416 768h64v-352h-64v352z" />
<glyph unicode="&#xe63d;" glyph-name="folder" d="M0 106.667v789.333l21.333 21.333h341.333l21.333-21.333v-64h490.667l21.333-21.333v-128h106.667l21.333-21.333-128-554.667-21.333-21.333h-853.333l-21.333 21.333zM85.333 832v-320h21.333l21.333 149.333 21.333 21.333h661.333v64h-490.667l-21.333 21.333v64h-213.333zM106.667 170.667h704l106.667 426.667h-704l-106.667-426.667z" />
<glyph unicode="&#xe63e;" glyph-name="up" d="M896 106.667l-21.333-21.333h-853.333l-21.333 21.333v789.333l21.333 21.333h341.333l21.333-21.333v-64h490.667l21.333-21.333v-128h106.667l21.333-21.333-128-554.667zM810.667 746.667h-490.667l-21.333 21.333v64h-213.333v-320h21.333l21.333 149.333 21.333 21.333h661.333v64zM213.333 597.333l-106.667-426.667h704l106.667 426.667h-704zM576 234.667h-106.667v149.333h-64v21.333c0 7.723 2.923 12.672 7.616 17.984l-0.085 0.085 88 99.989c0 0 4.8 9.941 21.803 9.941s21.803-9.941 21.803-9.941l88-99.989-0.085-0.085c4.693-5.312 7.616-10.261 7.616-17.984v-21.333h-64v-149.333z" />
<glyph unicode="&#xe63f;" glyph-name="unlock" d="M768 704.032v0c-57.984-18.048-56.704-18.432-130.176-35.584-11.52 71.616-67.136 101.888-125.824 99.584-67.52-2.688-127.936-35.84-127.936-128l-0.064-57.536h256l128-64h64v-333.248c0-40-59.264-57.408-59.264-57.408h-520.896c0 0-59.776 23.424-59.776 57.408 0 34.048-0.064 333.248-0.064 333.248h64v185.536c0 96 158.272 192.128 256.32 192.128 96 0 255.68-96.128 255.68-192.128zM576 448.096h-128v-192h128v192z" />
<glyph unicode="&#xe640;" glyph-name="anim-out" d="M128 192v640h128v-640h-128zM640 320v128h-320v128h320v128h64l192-192-192-192h-64z" />
<glyph unicode="&#xe641;" glyph-name="anim-in" d="M768 192v640h128v-640h-128zM448 320v128h-320v128h320v128h64l192-192-192-192h-64z" />
<glyph unicode="&#xe642;" glyph-name="anim-loop" d="M456.832 128.064c19.2 0 37.568 2.944 56.064 5.504v108.608c-17.792-3.392-36.096-5.376-54.912-5.376-155.328 0-281.216 123.072-281.216 274.816 0 151.808 125.888 274.88 281.216 274.88 134.848 0 218.752-86.528 246.016-210.432h-128l192-256 192 256h-128c-28.608 184.512-178.432 319.936-375.168 319.936-216.96 0-392.832-171.904-392.832-384 0-212.032 175.872-383.936 392.832-383.936v0z" />
<glyph unicode="&#xe643;" glyph-name="bulb" d="M696.832 457.472c-28.8-41.984-54.208-79.296-56.832-137.472h-256c-2.56 58.24-27.968 95.552-56.768 137.536-35.008 51.008-71.232 89.536-71.232 182.464 0 133.312 114.816 256 256 256s256-122.688 256-256c0-92.992-36.16-131.52-71.168-182.528v0zM640 192h-64v-64h-128v64h-64v64h256v-64z" />
<glyph unicode="&#xe644;" glyph-name="help" d="M512.096 800c39.872 0 77.312-7.488 112.096-22.496 34.88-15.072 65.408-35.584 91.68-61.696 26.176-26.016 46.688-56.512 61.632-91.424 14.848-35.008 22.336-72.416 22.336-112.352 0-39.84-7.488-77.28-22.336-112.192-14.944-34.976-35.456-65.504-61.632-91.584-26.272-26.048-56.8-46.624-91.68-61.632-34.784-14.976-72.224-22.496-112.096-22.496-39.936 0-77.344 7.52-112.288 22.496-35.040 15.008-65.536 35.584-91.584 61.632-26.112 26.080-46.624 56.608-61.632 91.584-15.072 34.912-22.592 72.352-22.592 112.192 0 39.936 7.52 77.344 22.592 112.352 15.008 34.912 35.52 65.408 61.632 91.424 26.048 26.112 56.544 46.624 91.584 61.696 34.944 15.008 72.352 22.496 112.288 22.496v0zM578.464 488.288v0c6.016 4.768 11.904 10.368 17.856 16.544 5.888 6.336 11.424 13.088 16.576 20.576 5.12 7.424 9.312 15.744 12.416 24.992 3.168 9.28 4.704 20.16 4.704 32.64 0 16.32-3.296 30.88-9.92 43.68-6.624 12.64-15.456 23.232-26.496 31.456-11.104 8.32-23.52 14.72-37.344 19.136-13.856 4.416-27.584 6.688-41.28 6.688-15.136 0-28.768-1.984-40.896-5.952-12.128-4-22.432-8.256-30.816-12.8-8.448-4.576-14.784-8.832-19.136-12.8-4.32-3.968-6.752-6.176-7.2-6.688-3.904-3.808-4.192-8.512-1.088-14.048l34.272-41.44c0.96-1.92 3.296-3.392 7.2-4.288 2.88 0 5.664 0.672 8.32 2.144l3.616 2.848c2.336 1.92 5.664 4.064 9.824 6.336 4.288 2.272 8.928 4.256 14.144 5.952 5.152 1.696 10.72 2.496 16.768 2.496 9.792 0 18.176-2.72 24.992-8.064 6.848-5.472 10.304-12.384 10.304-20.736 0-8.896-2.944-16.704-8.832-23.232-5.888-6.624-13.312-13.92-22.208-21.856-5.504-4.32-11.104-9.184-16.768-14.56-5.6-5.44-10.816-11.616-15.456-18.592-4.704-6.976-8.512-14.624-11.392-22.848-2.88-8.32-4.352-17.888-4.352-28.672v-23.104c0-2.848 1.12-5.376 3.328-7.488 2.144-2.208 4.64-3.232 7.488-3.232h59.136c2.944 0 5.376 1.024 7.456 3.232 2.048 2.112 3.072 4.64 3.072 7.488v18.4c0 9.408 3.008 17.344 9.184 23.968 6.112 6.592 13.632 13.888 22.528 21.824v0zM546.752 382.336c0 2.88-1.024 5.376-2.944 7.52-1.92 2.208-4.416 3.296-7.584 3.296h-59.136c-2.848 0-5.344-1.088-7.488-3.296-2.208-2.144-3.328-4.64-3.328-7.52v-56.224c0-2.88 1.12-5.536 3.328-7.712 2.144-2.368 4.64-3.456 7.488-3.456h59.136c2.944 0 5.376 1.088 7.456 3.456 2.048 2.176 3.072 4.832 3.072 7.712v56.224z" />
<glyph unicode="&#xe645;" glyph-name="horizontal-right" d="M960 0v1024h64v-1024h-64zM64 448h832v-320h-832v320zM128 192h704v192h-704v-192zM320 896h576v-320h-576v320z" />
<glyph unicode="&#xe646;" glyph-name="horizontal-center" d="M960 448v-320h-384v-128h-64v128h-384v320h384v128h-256v320h256v128h64v-128h256v-320h-256v-128h384zM192 384v-192h704v192h-704z" />
<glyph unicode="&#xe647;" glyph-name="horizontal-left" d="M128 128v320h832v-320h-832zM896 384h-704v-192h704v192zM128 896h576v-320h-576v320zM0 1024h64v-1024h-64v1024z" />
<glyph unicode="&#xe648;" glyph-name="vertical-bottom" d="M0 0v64h1024v-64h-1024zM576 704h320v-576h-320v576zM128 960h320v-832h-320v832zM192 192h192v704h-192v-704z" />
<glyph unicode="&#xe649;" glyph-name="vertical-middle" d="M896 448v-256h-320v256h-128v64h128v256h320v-256h128v-64h-128zM128 448h-128v64h128v384h320v-832h-320v384zM192 128h192v704h-192v-704z" />
<glyph unicode="&#xe64a;" glyph-name="vertical-top" d="M0 960v64h1024v-64h-1024zM448 64h-320v832h320v-832zM384 832h-192v-704h192v704zM896 320h-320v576h320v-576z" />
<glyph unicode="&#xe64b;" glyph-name="layerunlink" d="M894.4 577.664l-64-64.064c-42.304-42.304-85.824 32.96-59.456 59.392 0 0 52.928 52.928 48.384 48.32 0 0 56.704 63.36 56.704 114.688 0 77.184-62.848 139.968-140.032 139.968-37.376 0-72.576-14.528-98.944-40.96l-64.064-64.064c-26.432-26.432-101.696 17.152-59.392 59.392l64 64.064c42.304 42.304 98.56 65.6 158.4 65.6 123.52 0 224-100.48 224-224 0-59.84-23.296-116.096-65.6-158.336v0zM768 128l-576 704 64 64 576-704-64-64zM253.056 451.008l-64.064-64.064c-26.432-26.432-41.024-61.568-41.024-98.944 0-77.184 62.848-139.968 140.032-139.968 37.376 0 72.576 14.528 98.944 40.96 0 0 52.928 52.928 48.384 48.32 0 0 117.376-1.408 75.072-43.648l-64-64.064c-42.304-42.304-98.56-65.6-158.4-65.6-123.52 0-224 100.48-224 224 0 59.84 23.296 116.096 65.6 158.336l64 64.064c42.304 42.304 85.824-32.96 59.456-59.392v0z" />
<glyph unicode="&#xe64c;" glyph-name="moon" d="M975.552 582.080l11.328-69.312-59.264 32.704-59.2-32.704 11.328 69.312-47.936 49.088 66.24 10.112 29.568 63.104 29.632-63.104 66.24-10.112-47.936-49.088zM770.112 704.64l-98.752 54.528-98.688-54.528 18.88 115.52-79.872 81.856 110.336 16.832 49.344 105.152 49.344-105.152 110.4-16.832-79.872-81.856 18.88-115.52zM960 384.96c45.888-3.776 40-2.496 62.592-14.656-65.792-213.568-264.576-369.344-499.456-369.344-288.448 0-523.136 234.688-523.136 523.136 0 234.944 155.776 433.664 369.344 499.456 2.048 0.64 16.384-7.936 14.656-62.592-33.6-60.224-29.888-113.472-29.888-187.392 0-231.168 187.328-418.496 418.496-418.496 73.92 0 127.168-3.712 187.392 29.888zM266.368 865.28c-105.472-78.72-170.368-203.456-170.368-341.184 0-235.52 191.616-427.136 427.136-427.136 137.728 0 262.464 64.896 341.184 170.368-30.144-5.44-60.864-8.256-91.712-8.256-283.712 0-514.496 230.784-514.496 514.496 0 30.848 2.816 61.568 8.256 91.712v0z" />
<glyph unicode="&#xe64d;" glyph-name="layerlink" d="M894.4 577.664l-79.68-79.744c-8.192-8.192-18.944-12.288-29.696-12.288s-21.504 4.096-29.696 12.288c-8 8-12.096 18.432-12.288 28.928-0.256 11.008 3.84 22.080 12.288 30.464l79.68 79.744c26.432 26.432 41.024 61.568 41.024 98.944 0 77.184-62.848 139.968-140.032 139.968-37.376 0-72.576-14.528-98.944-40.96l-168.064-168c-26.432-26.432-40.96-61.568-40.96-99.008 0-47.808 24.128-91.904 64.64-117.824 9.792-6.272 16.064-15.872 18.368-26.368s0.576-21.888-5.696-31.68c-6.208-9.728-15.808-16-26.24-18.304-10.56-2.368-21.952-0.64-31.744 5.632-64.704 41.472-103.36 111.936-103.36 188.544 0 59.84 23.296 116.096 65.6 158.4l168 168c42.304 42.304 98.56 65.6 158.4 65.6 123.52 0 224-100.48 224-224 0-59.84-23.296-116.096-65.6-158.336v0zM288 148.032c37.376 0 72.576 14.528 99.008 40.96l168 168c26.432 26.496 41.024 61.568 41.024 99.008 0 47.808-24.192 91.904-64.704 117.824-9.728 6.272-16.064 15.936-18.304 26.432-2.368 10.496-0.64 21.888 5.632 31.616 6.208 9.728 15.808 16 26.24 18.368 10.56 2.304 21.952 0.64 31.808-5.696 64.704-41.472 103.296-112 103.296-188.544 0-59.84-23.296-116.096-65.6-158.4l-168-168c-42.304-42.304-98.56-65.6-158.4-65.6-123.52 0-224 100.48-224 224 0 59.84 23.296 116.096 65.6 158.4l79.744 79.68c8.128 8.192 18.88 12.288 29.632 12.288s21.504-4.096 29.76-12.288c8-8 12.096-18.432 12.288-28.928 0.192-11.008-3.904-22.080-12.288-30.464l-79.744-79.68c-26.432-26.496-40.96-61.632-40.96-99.008 0-77.184 62.784-139.968 139.968-139.968v0z" />
<glyph unicode="&#xe64e;" glyph-name="adaptive" d="M835.008-0.064v14.080c21.632 1.984 35.648 4.416 41.92 7.232 6.208 2.816 9.344 9.792 9.344 20.864 0 3.648-1.152 10.176-3.584 19.52-2.432 9.408-5.824 19.2-10.112 29.568l-29.696 69.12h-195.264c-19.264-49.728-30.72-76.096-34.496-87.040-3.712-10.944-5.568-19.648-5.568-26.048 0-12.8 5.056-21.632 15.168-26.56 6.272-2.944 18.048-5.184 35.392-6.656v-14.080h-146.816v14.080c19.008 2.24 33.344 9.536 42.88 22.080 9.472 12.48 25.856 46.656 48.96 102.592l154.368 372.928h14.784l184.576-430.784c12.288-28.544 22.144-46.208 29.504-52.992 7.36-6.72 19.712-11.328 37.056-13.824v-14.080h-188.416zM745.472 404.352l-84.288-210.24h170.176l-85.888 210.24zM512 768l-192-384h256v-64h-256l-128-256h64v-64h-256v64h64l448 960h64l128-320-64-256-128 320z" />
<glyph unicode="&#xe64f;" glyph-name="reset" d="M640 0.32v383.36h384v-383.36h-384zM320 576.192h128v126.464h64.256v-190.336h-192.256v63.872zM448 959.808h-128v64.192h192.256v-190.528h-64.256v126.336zM448 256l-128.64-1.024 0.832-190.336 191.808-0.64v-64l-256.128 0.96v254.016l-127.872 1.024 128 192h64l128-192zM0 702.656h64v-126.464h128.192v-63.872h-192.192v190.336zM64 833.472h-64v190.528h192.192v-64.192h-128.192v-126.336z" />
<glyph unicode="&#xe650;" glyph-name="fontmodifier" d="M896 384h-64l-128 192h128v448h64v-448h128l-128-192zM576 960h-192v-640h64v-64h-256v64c-3.968-0.32 64 0 64 0v640h-192v-64h-64v128h640l0.64-126.4-64.64-1.6v64zM576 320l192-128v-64l-192-128v128h-512v64h512v128z" />
<glyph unicode="&#xe651;" glyph-name="sun" d="M980.096 468.096h-87.744c-24.256 0-43.904 19.648-43.904 43.904s19.648 43.904 43.904 43.904h87.744c24.256 0 43.904-19.648 43.904-43.904s-19.648-43.904-43.904-43.904zM835.584 773.568c-7.936-7.936-18.88-12.864-31.040-12.864-24.192 0-43.84 19.648-43.84 43.84 0 12.16 4.928 23.104 12.864 31.040l58.496 58.56c7.936 7.936 18.88 12.8 31.040 12.8 24.192 0 43.84-19.648 43.84-43.84 0-12.16-4.864-23.104-12.8-31.040l-58.56-58.496zM512 256.64c-140.8 0-255.36 114.56-255.36 255.36s114.56 255.36 255.36 255.36c140.8 0 255.36-114.56 255.36-255.36s-114.56-255.36-255.36-255.36zM512 848.448c-24.256 0-43.904 19.648-43.904 43.904v87.744c0 24.256 19.648 43.904 43.904 43.904s43.904-19.648 43.904-43.904v-87.744c0-24.256-19.648-43.904-43.904-43.904zM219.456 760.704c-12.16 0-23.104 4.928-31.040 12.864l-58.56 58.496c-7.936 7.936-12.8 18.88-12.8 31.040 0 24.192 19.648 43.84 43.84 43.84 12.16 0 23.104-4.864 31.040-12.8l58.496-58.56c7.936-7.936 12.864-18.88 12.864-31.040 0-24.192-19.648-43.84-43.84-43.84zM175.552 512c0-24.256-19.648-43.904-43.904-43.904h-87.744c-24.256 0-43.904 19.648-43.904 43.904s19.648 43.904 43.904 43.904h87.744c24.256 0 43.904-19.648 43.904-43.904zM188.416 250.432c7.936 8 18.88 12.864 31.040 12.864 24.192 0 43.84-19.648 43.84-43.84 0-12.16-4.928-23.104-12.864-31.040l-58.496-58.56c-7.936-7.936-18.88-12.8-31.040-12.8-24.192 0-43.84 19.648-43.84 43.84 0 12.16 4.864 23.104 12.8 31.040l58.56 58.496zM512 175.552c24.256 0 43.904-19.648 43.904-43.904v-87.744c0-24.256-19.648-43.904-43.904-43.904s-43.904 19.648-43.904 43.904v87.744c0 24.256 19.648 43.904 43.904 43.904zM804.544 263.296c12.16 0 23.104-4.864 31.040-12.864l58.56-58.496c7.936-7.936 12.8-18.88 12.8-31.040 0-24.192-19.648-43.84-43.84-43.84-12.16 0-23.104 4.864-31.040 12.8l-58.496 58.56c-7.936 7.936-12.864 18.88-12.864 31.040 0 24.192 19.648 43.84 43.84 43.84z" />
<glyph unicode="&#xe900;" glyph-name="sortdate2" d="M960 704v64h-64v64h128v-128h-64zM999.040 572.8c16.64-38.912 24.832-80.448 24.832-124.864 0-44.224-8.192-85.824-24.832-124.608-16.512-38.912-39.36-72.832-68.48-101.824-29.12-28.864-63.040-51.776-101.76-68.416-38.72-16.704-80.256-25.024-124.672-25.024-44.288 0-85.888 8.32-124.8 25.024-38.784 16.64-72.704 39.552-101.76 68.416-28.928 28.992-51.84 62.912-68.48 101.824-16.704 38.784-25.024 80.384-25.024 124.608 0 44.416 8.32 85.952 25.024 124.864 16.64 38.784 39.552 72.704 68.48 101.568 29.056 29.056 62.976 51.84 101.76 68.544 38.912 16.704 80.512 25.024 124.8 25.024 44.416 0 85.952-8.32 124.672-25.024s72.64-39.488 101.76-68.544c29.12-28.864 51.968-62.784 68.48-101.568v0zM910.528 535.296c-11.776 26.944-27.776 50.56-48.064 70.912-20.352 20.224-44.032 36.224-71.104 48-27.136 11.776-56.256 17.664-87.232 17.664-31.232 0-60.352-5.888-87.488-17.664s-50.816-27.776-70.912-48c-20.16-20.352-36.16-43.968-47.872-70.912-11.776-26.944-17.664-56.064-17.664-87.36 0-31.168 5.888-60.224 17.664-87.232 11.712-26.944 27.712-50.624 47.872-70.912 20.096-20.224 43.776-36.224 70.912-48s56.256-17.664 87.488-17.664c31.36 0 60.416 5.888 87.424 17.664 26.944 11.776 50.56 27.776 70.912 48 20.288 20.288 36.288 43.968 48.064 70.912 11.776 27.008 17.664 56.064 17.664 87.232 0 31.296-5.888 60.416-17.664 87.36v0zM640 576h64v-128h128v-64h-192v192zM448 704h-64v128h128v-64h-64v-64zM0 640h128v-640h128v640h128l-192 320-192-320z" />
<glyph unicode="&#xe901;" glyph-name="sortdate1" d="M960 704v64h-64v64h128v-128h-64zM999.040 572.8c16.64-38.912 24.832-80.448 24.832-124.864 0-44.224-8.192-85.824-24.832-124.608-16.512-38.912-39.36-72.832-68.48-101.824-29.12-28.864-63.040-51.776-101.76-68.416-38.72-16.704-80.256-25.024-124.672-25.024-44.288 0-85.888 8.32-124.8 25.024-38.784 16.64-72.704 39.552-101.76 68.416-28.928 28.992-51.84 62.912-68.48 101.824-16.704 38.784-25.024 80.384-25.024 124.608 0 44.416 8.32 85.952 25.024 124.864 16.64 38.784 39.552 72.704 68.48 101.568 29.056 29.056 62.976 51.84 101.76 68.544 38.912 16.704 80.512 25.024 124.8 25.024 44.416 0 85.952-8.32 124.672-25.024s72.64-39.488 101.76-68.544c29.12-28.864 51.968-62.784 68.48-101.568v0zM910.528 535.296c-11.776 26.944-27.776 50.56-48.064 70.912-20.352 20.224-44.032 36.224-71.104 48-27.136 11.776-56.256 17.664-87.232 17.664-31.232 0-60.352-5.888-87.488-17.664s-50.816-27.776-70.912-48c-20.16-20.352-36.16-43.968-47.872-70.912-11.776-26.944-17.664-56.064-17.664-87.36 0-31.168 5.888-60.224 17.664-87.232 11.712-26.944 27.712-50.624 47.872-70.912 20.096-20.224 43.776-36.224 70.912-48s56.256-17.664 87.488-17.664c31.36 0 60.416 5.888 87.424 17.664 26.944 11.776 50.56 27.776 70.912 48 20.288 20.288 36.288 43.968 48.064 70.912 11.776 27.008 17.664 56.064 17.664 87.232 0 31.296-5.888 60.416-17.664 87.36v0zM640 576h64v-128h128v-64h-192v192zM448 704h-64v128h128v-64h-64v-64zM0 320h128v640h128v-640h128l-192-320-192 320z" />
<glyph unicode="&#xe902;" glyph-name="sortalphabetic2" d="M896 0h-320v64l192 256h-192v64h320v-64l-192-256h192v-64zM768 576h-128v-64h-128l128 448h128l128-448h-128v64zM704 832l-64-192h128l-64 192zM320 0h-128v640h-128l192 320 192-320h-128v-640z" />
<glyph unicode="&#xe903;" glyph-name="sortalphabetic1" d="M896 0h-320v64l192 256h-192v64h320v-64l-192-256h192v-64zM768 576h-128v-64h-128l128 448h128l128-448h-128v64zM704 832l-64-192h128l-64 192zM64 320h128v640h128v-640h128l-192-320-192 320z" />
<glyph unicode="&#xe904;" glyph-name="slideedit" d="M512 0c-282.784 0-512 229.216-512 512s229.216 512 512 512c282.784 0 512-229.216 512-512s-229.216-512-512-512v0zM591.712 758.688l80.608-47.36c29.8-17.772 39.912-56.115 22.752-86.272l-155.136-273.376-125.312-63.808c-49.44-27.456-60.576-27.456-62.656 30.144-0.16 60.736-0.16 144.192-0.16 144.192l155.136 273.376c8.050 14.439 21.577 25.027 37.526 29.374s32.978 2.087 47.242-6.27zM614.4 672.448l-26.88 15.776c-7.134 4.179-15.651 5.31-23.628 3.136s-14.744-7.468-18.772-14.688l-124.128-218.72-4.992-105.952 85.632 58.592 124.128 218.72c8.51 15.084 3.476 34.2-11.36 43.136v0zM610.24 602.048l-80.64 47.36-31.040-54.688 80.64-47.52 31.040 54.848zM64 512c0-247.424 200.576-448 448-448s448 200.576 448 448c0 247.424-200.576 448-448 448s-448-200.576-448-448z" />
<glyph unicode="&#xe905;" glyph-name="undo" d="M742.912 895.36l-377.216-383.36 382.144-388.224c12.991-13.699 20.21-31.873 20.16-50.752 0.248-40.033-31.967-72.707-72-73.024-18.705-0.007-36.662 7.35-49.984 20.48v0l-432 438.848c-14.145 13.868-22.085 32.863-22.016 52.672v0c-0.051 19.786 7.887 38.756 22.016 52.608v0l432 438.848c13.312 13.154 31.27 20.534 49.984 20.544 19.249-0.152 37.648-7.945 51.151-21.664s21.002-32.24 20.849-51.488c0.065-21.256-9.086-41.497-25.088-55.488v0z" />
<glyph unicode="&#xe906;" glyph-name="redo" d="M281.090 895.36l377.28-383.36-382.144-388.224c-12.991-13.699-20.21-31.873-20.16-50.752-0.249-40.009 31.928-72.672 71.936-73.024 18.705-0.007 36.662 7.35 49.984 20.48v0l432 438.848c14.145 13.868 22.085 32.863 22.016 52.672v0c0.051 19.786-7.887 38.756-22.016 52.608v0l-432 438.848c-13.312 13.154-31.27 20.534-49.984 20.544-19.249-0.152-37.648-7.945-51.151-21.664s-21.002-32.24-20.849-51.488c-0.065-21.256 9.086-41.497 25.088-55.488v0z" />
<glyph unicode="&#xe907;" glyph-name="copy" d="M0 128l128-128h768l128 128v768l-128 128h-768l-128-128v-768zM128 896h768v-768h-768v768zM512 320v128h-256v128h256v128h64l192-192-192-192h-64z" />
<glyph unicode="&#xe908;" glyph-name="paste" d="M0 128l128-128h768l128 128v768l-128 128h-768l-128-128v-768zM128 896h768v-768h-768v768zM512 320v128h256v128h-256v128h-64l-192-192 192-192h64z" />
<glyph unicode="&#xe909;" glyph-name="backgroundedit" d="M1024 805.568c-0.003 16.523-6.781 32.323-18.752 43.712l-96 92.736c-22.728 20.796-56.7 23.436-82.368 6.4l-224.384-154.752c-29.529 7.712-59.913 11.668-90.432 11.776-191.016 3.281-348.566-148.827-352-339.84-0.764-118.296-60.898-228.298-160.064-292.8 138.395-71.808 292.085-109.132 448-108.8 225.763-3.887 411.97 175.903 416 401.664-0.11 29.513-4.2 58.876-12.16 87.296l160 216.512c7.868 10.391 12.137 23.062 12.16 36.096v0zM448 156.736c-95.441-0.005-190.247 15.515-280.704 45.952 57.388 75.7 88.53 168.046 88.704 263.040 0 141.385 114.615 256 256 256s256-114.615 256-256c-3.293-173.581-146.41-311.775-320-308.992v0zM806.4 651.392c-26.961 39.624-61.825 73.245-102.4 98.752l156.224 107.776 57.6-55.68-111.424-150.848z" />
<glyph unicode="&#xe90a;" glyph-name="closewindow" d="M815.488 735.616l-223.616-223.616 223.616-223.616c22.056-22.056 22.056-57.816 0-79.872s-57.816-22.056-79.872 0v0l-223.616 223.616-223.616-223.616c-22.056-22.056-57.816-22.056-79.872 0s-22.056 57.816 0 79.872v0l223.616 223.616-223.616 223.616c-14.268 14.268-19.84 35.063-14.618 54.554s20.446 34.714 39.936 39.936c19.49 5.222 40.286-0.35 54.554-14.618v0l223.616-223.616 223.616 223.616c22.056 22.056 57.816 22.056 79.872 0s22.056-57.816 0-79.872v0 0z" />
<glyph unicode="&#xe90b;" glyph-name="selected" d="M512 64c-247.424 0-448 200.576-448 448s200.576 448 448 448c247.424 0 448-200.576 448-448s-200.576-448-448-448v0zM512 832c-176.731 0-320-143.269-320-320s143.269-320 320-320c176.731 0 320 143.269 320 320 0 84.869-33.714 166.263-93.726 226.274s-141.405 93.726-226.274 93.726v0zM512 704c106.039 0 192-85.961 192-192s-85.961-192-192-192c-106.039 0-192 85.961-192 192s85.961 192 192 192v0z" />
<glyph unicode="&#xe90c;" glyph-name="backgroundmanage" d="M56.064 0c-18.215 0.023-35.264 8.964-45.64 23.934s-12.764 34.074-6.392 51.138l92.544 250.88c2.775 7.446 7.143 14.195 12.8 19.776l36.096 36.672 560.512 562.56c10.4 10.439 24.529 16.307 39.264 16.307s28.864-5.868 39.264-16.307l169.472-170.048c21.666-21.793 21.666-56.991 0-78.784l-596.16-598.72c-6.456-6.531-14.409-11.386-23.168-14.144l-262.016-80.832c-5.367-1.66-10.958-2.48-16.576-2.432v0zM316.172 213.969l-90.718 91.027-28.909-29.028-49.344-133.824 141.184 43.584 27.788 28.241zM407.968 306.080l427.936 429.408-90.88 91.2-427.958-429.706 90.902-90.902z" />
<glyph unicode="&#xe90d;" glyph-name="backgroundposition" d="M576 833.984v-257.984h256v128l192.512-192.512-192.512-192.448v130.944h-256v-257.984h128.96l-192.448-192.512-192.512 192.512h128v257.984h-256v-129.984l-191.488 191.488 191.488 191.488v-126.976h256v257.984h-124.992l189.504 189.504 189.44-189.504z" />
<glyph unicode="&#xe90e;" glyph-name="viewmini" d="M115.2 960h153.6c23.25-9.322 41.6-27.858 50.688-51.2l0.512-153.6c-4.844-26.009-25.191-46.356-51.2-51.2h-153.6c-26.009 4.844-46.356 25.191-51.2 51.2v153.6c4.844 26.009 25.191 46.356 51.2 51.2v0zM435.2 960h153.6c23.25-9.322 41.6-27.858 50.688-51.2l0.512-153.6c-4.844-26.009-25.191-46.356-51.2-51.2h-153.6c-26.009 4.844-46.356 25.191-51.2 51.2v153.6c4.844 26.009 25.191 46.356 51.2 51.2v0zM755.2 960h153.6c23.25-9.322 41.6-27.858 50.688-51.2l0.512-153.6c-4.844-26.009-25.191-46.356-51.2-51.2h-153.6c-26.009 4.844-46.356 25.191-51.2 51.2v153.6c4.844 26.009 25.191 46.356 51.2 51.2v0zM115.2 640h153.6c23.25-9.322 41.6-27.858 50.688-51.2l0.512-153.6c-4.844-26.009-25.191-46.356-51.2-51.2h-153.6c-26.009 4.844-46.356 25.191-51.2 51.2v153.6c4.844 26.009 25.191 46.356 51.2 51.2v0zM435.2 640h153.6c23.25-9.322 41.6-27.858 50.688-51.2l0.512-153.6c-4.844-26.009-25.191-46.356-51.2-51.2h-153.6c-26.009 4.844-46.356 25.191-51.2 51.2v153.6c4.844 26.009 25.191 46.356 51.2 51.2v0zM755.2 640h153.6c23.25-9.322 41.6-27.858 50.688-51.2l0.512-153.6c-4.844-26.009-25.191-46.356-51.2-51.2h-153.6c-26.009 4.844-46.356 25.191-51.2 51.2v153.6c4.844 26.009 25.191 46.356 51.2 51.2v0zM115.2 320h153.6c23.25-9.322 41.6-27.858 50.688-51.2l0.512-153.6c-4.844-26.009-25.191-46.356-51.2-51.2h-153.6c-26.009 4.844-46.356 25.191-51.2 51.2v153.6c4.844 26.009 25.191 46.356 51.2 51.2v0zM435.2 320h153.6c23.25-9.322 41.6-27.858 50.688-51.2l0.512-153.6c-4.844-26.009-25.191-46.356-51.2-51.2h-153.6c-26.009 4.844-46.356 25.191-51.2 51.2v153.6c4.844 26.009 25.191 46.356 51.2 51.2v0zM755.2 320h153.6c23.25-9.322 41.6-27.858 50.688-51.2l0.512-153.6c-4.844-26.009-25.191-46.356-51.2-51.2h-153.6c-26.009 4.844-46.356 25.191-51.2 51.2v153.6c4.844 26.009 25.191 46.356 51.2 51.2v0z" />
<glyph unicode="&#xe90f;" glyph-name="viewgrid" d="M140.8 960h230.4c34.873-13.986 62.397-41.789 76.032-76.8l0.768-230.4c-7.266-39.013-37.787-69.534-76.8-76.8h-230.4c-39.013 7.266-69.534 37.787-76.8 76.8v230.4c7.266 39.013 37.787 69.534 76.8 76.8v0zM652.8 960h230.4c39.013-7.266 69.534-37.787 76.8-76.8v-230.4c-7.266-39.013-37.787-69.534-76.8-76.8h-230.4c-39.013 7.266-69.534 37.787-76.8 76.8v230.4c7.266 39.013 37.787 69.534 76.8 76.8v0zM140.8 448h230.4c39.013-7.266 69.534-37.787 76.8-76.8v-230.4c-7.266-39.013-37.787-69.534-76.8-76.8h-230.4c-39.013 7.266-69.534 37.787-76.8 76.8v230.4c7.266 39.013 37.787 69.534 76.8 76.8v0zM652.8 448h230.4c39.013-7.266 69.534-37.787 76.8-76.8v-230.4c-7.266-39.013-37.787-69.534-76.8-76.8h-230.4c-39.013 7.266-69.534 37.787-76.8 76.8v230.4c7.266 39.013 37.787 69.534 76.8 76.8v0z" />
<glyph unicode="&#xe910;" glyph-name="viewlist" d="M128 960h768c32.528-6.021 57.979-31.472 64-64v0c-6.021-32.528-31.472-57.979-64-64h-768c-32.528 6.021-57.979 31.472-64 64v0c6.021 32.528 31.472 57.979 64 64v0zM128 704h768c32.528-6.021 57.979-31.472 64-64v0c-6.021-32.528-31.472-57.979-64-64h-768c-32.528 6.021-57.979 31.472-64 64v0c6.021 32.528 31.472 57.979 64 64v0zM128 448h768c32.528-6.021 57.979-31.472 64-64v0c-6.021-32.528-31.472-57.979-64-64h-768c-32.528 6.021-57.979 31.472-64 64v0c6.021 32.528 31.472 57.979 64 64v0zM128 192h768c32.528-6.021 57.979-31.472 64-64v0c-6.021-32.528-31.472-57.979-64-64h-768c-32.528 6.021-57.979 31.472-64 64v0c6.021 32.528 31.472 57.979 64 64v0z" />
<glyph unicode="&#xe911;" glyph-name="more2" d="M96 640c53.019 0 96-42.981 96-96s-42.981-96-96-96c-53.019 0-96 42.981-96 96s42.981 96 96 96v0zM480 640c53.019 0 96-42.981 96-96s-42.981-96-96-96c-53.019 0-96 42.981-96 96s42.981 96 96 96v0zM864 640c53.019 0 96-42.981 96-96s-42.981-96-96-96c-53.019 0-96 42.981-96 96s42.981 96 96 96v0z" />
<glyph unicode="&#xe912;" glyph-name="tick2" d="M818.624 624.896v0l-350.464-355.328c-8.511-8.686-20.159-13.581-32.32-13.581s-23.809 4.895-32.32 13.581v0l-198.144 200.832c-8.601 8.734-13.408 20.51-13.376 32.768-0.085 12.204 4.681 23.943 13.251 32.632s20.241 13.619 32.445 13.704c12.159 0.003 23.807-4.887 32.32-13.568v0l165.824-168.064 318.144 322.56c8.513 8.681 20.161 13.571 32.32 13.568 12.204-0.085 23.875-5.014 32.445-13.704s13.336-20.428 13.251-32.632c0.032-12.258-4.775-24.034-13.376-32.768v0z" />
<glyph unicode="&#xe913;" glyph-name="newdrag" d="M256 544c35.346 0 64-28.654 64-64s-28.654-64-64-64c-35.346 0-64 28.654-64 64s28.654 64 64 64v0zM512 544c35.346 0 64-28.654 64-64s-28.654-64-64-64c-35.346 0-64 28.654-64 64s28.654 64 64 64v0zM768 544c35.346 0 64-28.654 64-64s-28.654-64-64-64c-35.346 0-64 28.654-64 64s28.654 64 64 64v0z" />
<glyph unicode="&#xe914;" glyph-name="minimize" d="M691.136 385.024h-71.296l-43.84 62.976v-320h-128v320l-41.92-62.976h-71.232c0 0-19.648 57.216 0 79.040l142.528 158.016c19.648 21.824 51.52 21.824 71.232 0l142.464-158.016c19.712-21.824 0.064-79.040 0.064-79.040zM896 768h-768v128h768v-128z" />
<glyph unicode="&#xe915;" glyph-name="maximize" d="M128 128v448h128v-320h512v320h128v-448h-768zM548.544 399.936c-20.224-21.888-52.928-21.888-73.152 0l-146.304 158.72c-20.224 21.888 0 79.296 0 79.296h73.152l43.008-63.232v321.28h131.456v-321.28l44.992 63.232h73.152c0 0 20.224-57.408 0-79.296l-146.304-158.72z" />
<glyph unicode="&#xe916;" glyph-name="canvas" d="M128 512v512h832v-512h-832zM896 320h-64v-128l-70.848-0.896-57.152 128.896h-320l-57.216-128.896-70.784 0.896v128h-64v128h704v-128z" />
<glyph unicode="&#xe917;" glyph-name="addlayer" d="M448 960h128v-384h384v-128h-384v-384h-128v384h-384v128h384z" />
<glyph unicode="&#xe918;" glyph-name="listlayer" d="M1024 128h-1024v128h1024v-128zM1024 448h-1024v128h1024v-128zM1024 768h-1024v128h1024v-128z" />
<glyph unicode="&#xe919;" glyph-name="closelayer" d="M127.936 805.568l90.496 90.496 271.552-271.552 271.552 271.552 90.496-90.496-271.552-271.552 271.552-271.552-90.496-90.496-271.552 271.552-271.552-271.552-90.496 90.496 271.552 271.552z" />
<glyph unicode="&#xe91a;" glyph-name="slides" d="M256 736h185.856l38.144-38.4v-121.6l-32-32h-192l-31.648 38.4-0.352 121.6 32 32zM582.624 736h185.376l32-32v-128l-32-32h-192l-32 32v128l38.624 32zM256 480h192l32-32v-128l-32-32h-192l-32 32v128l32 32zM576 480h192l32-32v-128l-32-32h-192l-32 32v128l32 32z" />
<glyph unicode="&#xe91b;" glyph-name="emptyslide" d="M810.667 170.667h-597.333c-47.128 0-85.333 38.205-85.333 85.333v512c0 47.128 38.205 85.333 85.333 85.333h597.333c47.128 0 85.333-38.205 85.333-85.333v-512c0-47.128-38.205-85.333-85.333-85.333v0zM213.333 810.667c-23.564 0-42.667-19.103-42.667-42.667v-512c0-23.564 19.103-42.667 42.667-42.667h597.333c23.564 0 42.667 19.103 42.667 42.667v512c0 23.564-19.103 42.667-42.667 42.667h-597.333zM352 533.333c-53.019 0-96 42.981-96 96s42.981 96 96 96c53.019 0 96-42.981 96-96s-42.981-96-96-96v0zM352 682.901c-21.677 0-41.219-13.059-49.512-33.087s-3.705-43.079 11.626-58.404c15.331-15.325 38.384-19.904 58.408-11.603s33.075 27.848 33.067 49.525c-0.035 29.578-24.011 53.544-53.589 53.568v0zM312.768 329.941c-8.676-0.008-16.492 5.239-19.77 13.272s-1.366 17.25 4.837 23.315c4.267 4.267 83.008 85.333 134.805 138.965 7.474 7.732 19.535 8.692 28.139 2.24l69.355-52.011 114.987 134.165c7.485 8.732 20.545 9.959 29.525 2.773l106.667-85.333c9.202-7.364 10.692-20.793 3.328-29.995s-20.793-10.692-29.995-3.328l-90.56 72.533-114.581-133.675c-7.318-8.532-20-9.922-28.992-3.179l-70.293 52.715c-34.133-35.157-117.333-121.259-122.56-126.272-3.955-3.943-9.306-6.166-14.891-6.187v0z" />
<glyph unicode="&#xe91c;" glyph-name="addslide" d="M789.333 170.667h-554.667c-47.128 0-85.333 38.205-85.333 85.333v512c0 47.128 38.205 85.333 85.333 85.333h554.667c47.128 0 85.333-38.205 85.333-85.333v-512c0-47.128-38.205-85.333-85.333-85.333v0zM234.667 810.667c-23.564 0-42.667-19.103-42.667-42.667v-512c0-23.564 19.103-42.667 42.667-42.667h554.667c23.564 0 42.667 19.103 42.667 42.667v512c0 23.564-19.103 42.667-42.667 42.667h-554.667zM960 178.944c-4.573-0.022-9.119 0.699-13.461 2.133l-35.904 11.947c-11.193 3.723-17.248 15.815-13.525 27.008s15.815 17.248 27.008 13.525l35.883-11.947v580.8l-35.925-11.989c-7.241-2.408-15.216-0.771-20.922 4.295s-8.276 12.792-6.741 20.267c1.535 7.475 6.94 13.563 14.181 15.971l35.904 11.968c13.022 4.345 27.339 2.159 38.471-5.874s17.719-20.931 17.7-34.659v-580.821c-0.024-23.547-19.119-42.624-42.667-42.624v0zM64 178.944c-23.564 0-42.667 19.103-42.667 42.667v580.8c-0.019 13.728 6.568 26.626 17.7 34.659s25.449 10.219 38.471 5.874l35.904-11.947c11.193-3.723 17.248-15.815 13.525-27.008s-15.815-17.248-27.008-13.525l-35.925 11.925v-580.8l35.925 11.989c11.193 3.723 23.285-2.332 27.008-13.525s-2.332-23.285-13.525-27.008l-35.904-11.968c-4.356-1.438-8.917-2.158-13.504-2.133v0zM373.333 533.333c-53.019 0-96 42.981-96 96s42.981 96 96 96c53.019 0 96-42.981 96-96s-42.981-96-96-96v0zM373.333 682.901c-21.677 0-41.219-13.059-49.512-33.087s-3.705-43.079 11.626-58.404c15.331-15.325 38.384-19.904 58.408-11.603s33.075 27.848 33.067 49.525c-0.035 29.578-24.011 53.544-53.589 53.568v0zM312.768 329.941c-8.676-0.008-16.492 5.239-19.77 13.272s-1.366 17.25 4.837 23.315c4.267 4.267 82.987 85.333 134.805 138.965 7.474 7.732 19.535 8.692 28.139 2.24l69.355-52.011 114.987 134.165c7.485 8.732 20.545 9.959 29.525 2.773l106.667-85.333c9.202-7.364 10.692-20.793 3.328-29.995s-20.793-10.692-29.995-3.328l-90.56 72.533-114.581-133.675c-7.318-8.532-20-9.922-28.992-3.179l-70.4 52.715c-34.027-35.157-117.333-121.259-122.56-126.293-3.94-3.897-9.242-6.109-14.784-6.165v0z" />
<glyph unicode="&#xe91d;" glyph-name="staraction" d="M512 0c-282.784 0-512 229.216-512 512s229.216 512 512 512c282.784 0 512-229.216 512-512s-229.216-512-512-512zM512 960c-247.424 0-448-200.576-448-448s200.576-448 448-448c247.424 0 448 200.576 448 448s-200.576 448-448 448zM512.383 767.968c-7.040-0.015-13.421-4.144-16.32-10.56l-55.040-124.16-138.88-27.712c-6.396-1.319-11.555-6.036-13.44-12.288-1.799-6.275-0.088-13.033 4.48-17.696l96.64-96.32-26.88-137.92c-1.605-6.374 0.496-13.109 5.44-17.44 3.212-2.465 7.151-3.793 11.2-3.776 2.534-0.012 5.042 0.511 7.36 1.536l125.44 55.584 126.080-55.68c2.192-1.061 4.605-1.587 7.040-1.536 3.946 0.044 7.768 1.381 10.88 3.808 5.021 4.313 7.239 11.052 5.76 17.504l-27.2 137.952 96.96 96.32c4.435 4.724 6.128 11.397 4.48 17.664-2.015 6.297-7.279 11.011-13.76 12.32l-138.56 27.712-55.36 124.192c-2.902 6.409-9.285 10.526-16.32 10.528v-0.032z" />
<glyph unicode="&#xe91e;" glyph-name="breadcrumbarrow" d="M275.2 799.552l293.76-287.552-297.28-291.2c-10.027-10.14-15.659-23.82-15.68-38.080 0.152-14.7 6.138-28.737 16.64-39.023s24.661-15.979 39.36-15.825c14.44-0.049 28.347 5.449 38.848 15.36v0l336 329.152c10.962 10.256 17.174 24.604 17.152 39.616v0c-0.014 14.968-6.222 29.262-17.152 39.488v0l-336 329.152c-10.501 9.911-24.408 15.409-38.848 15.36-14.7 0.154-28.858-5.539-39.36-15.825s-16.488-24.323-16.64-39.023c-0.063-16.023 6.966-31.252 19.2-41.6v0z" />
<glyph unicode="&#xe91f;" glyph-name="animation" d="M430.016 0c-4.595 0-9.166 0.668-13.568 1.984-20.407 6.013-34.42 24.742-34.432 46.016v336h-208c-17.579-0.001-33.752 9.607-42.158 25.046s-7.701 34.237 1.838 49.002l352 544c11.547 17.876 33.486 26.015 53.898 19.995s34.423-24.762 34.422-46.043v-336h208c17.579 0.001 33.752-9.607 42.158-25.046s7.701-34.237-1.838-49.002l-352-544c-8.843-13.687-24.025-21.953-40.32-21.952v0z" />
<glyph unicode="&#xe920;" glyph-name="layer-text" d="M1024 832h-1024v128h1024v-128zM0 704h896v-128h-896v128zM0 448h1024v-128h-1024v128zM0 192h768v-128h-768v128z" />
<glyph unicode="&#xe921;" glyph-name="folderclosed" d="M0 128l64-64h896l64 64v640l-64 64h-512l-64 128h-320l-64-64z" />
<glyph unicode="&#xe922;" glyph-name="folderopened" d="M896 64h-768l-64 64-64 384h1024l-64-384-64-64zM0 896l64 64h256l64-128h576l64-64v-128h-1024v256z" />
<glyph unicode="&#xe923;" glyph-name="hide2" d="M317.4 237.528l-93.016-93.016c-22.056-22.056-57.816-22.056-79.872 0s-22.056 57.816 0 79.872l79.643 79.635c-107.256 93.101-160.155 201.581-160.155 201.581s127.488 255.168 384 320c62.4 0.384 62.464 0 128 0 44.376-10.607 85.033-27.403 121.902-47.88l101.714 101.704c22.056 22.056 57.816 22.056 79.872 0s22.056-57.816 0-79.872l-87.492-87.428c110.854-94.081 168.004-206.524 168.004-206.524s-129.28-255.168-384-320c-61.952 1.152-61.888 1.28-128 0-48.103 11.417-91.625 29.715-130.6 51.928zM340.645 420.498l259.547 259.522c-27.114 13.387-57.358 20.116-88.192 19.18v0c-106.039 0-192-85.961-192-192 0-31.198 7.441-60.658 20.645-86.702zM419.038 339.166c27.544-15.271 59.238-23.966 92.962-23.966 106.039 0 192 85.961 192 192 1.009 33.243-6.892 65.8-22.439 94.489l-262.523-262.523z" />
<glyph unicode="&#xe924;" glyph-name="select" d="M512 64c-247.424 0-448 200.576-448 448s200.576 448 448 448c247.424 0 448-200.576 448-448s-200.576-448-448-448v0zM512 832c-176.731 0-320-143.269-320-320s143.269-320 320-320c176.731 0 320 143.269 320 320 0 84.869-33.714 166.263-93.726 226.274s-141.405 93.726-226.274 93.726v0z" />
<glyph unicode="&#xe925;" glyph-name="hidedesktopportrait" d="M960 256h-320v-128h128v-64h-512v64h128v128h-320l-64 64v576l64 64h896l64-64v-576l-64-64zM896 832h-768v-448h768v448z" />
<glyph unicode="&#xe926;" glyph-name="mini-arrow-thin" d="M397.952 703.68l209.536-191.616-212.288-194.112c-6.912-6.592-11.2-15.488-11.2-25.408 0-20.16 17.92-36.544 40-36.544 10.816 0 20.544 3.904 27.776 10.24v0l240 219.456c7.552 6.656 12.224 15.936 12.224 26.304v0.192c0 10.304-4.672 19.648-12.224 26.304v0l-240.128 219.328c-7.168 6.272-16.896 10.176-27.648 10.176-22.080 0-40-16.384-40-36.544 0-11.136 5.44-21.056 13.952-27.776z" />
<glyph unicode="&#xe927;" glyph-name="hidetabletlandscape" d="M1024 896v-704l-64-64h-896l-64 64v704l64 64h896l64-64zM960 576h-64v-64h64v64zM128 832v-576h704v576h-704z" />
<glyph unicode="&#xe928;" glyph-name="hidetabletportrait" d="M832 0h-704l-64 64v896l64 64h704l64-64v-896l-64-64zM512 64v64h-64v-64h64zM768 896h-576v-704h576v704z" />
<glyph unicode="&#xe929;" glyph-name="hidemobilelandscape" d="M1024 768v-448l-64-64h-896l-64 64v448l64 64h896l64-64zM960 576h-64v-64h64v64zM128.576 768v-448h704.32v448h-704.32z" />
<glyph unicode="&#xe92a;" glyph-name="hidemobileportrait" d="M704 0h-448l-64 64v896l64 64h448l64-64v-896l-64-64zM512 64v64h-64v-64h64zM704 895.424h-448v-704.32h448v704.32z" />
<glyph unicode="&#xe92b;" glyph-name="layerlistopen" d="M176.512 278.336l335.488 335.296 339.712-339.712c25.189-23.655 64.607-23.042 89.050 1.383s25.083 63.843 1.446 89.049v0l-384 384c-12.083 12.57-28.772 19.667-46.208 19.648v0c-17.382 0-34.017-7.069-46.080-19.584v0l-384-384c-16.49-16.715-22.503-41.118-15.666-63.581s25.425-39.379 48.431-44.073c23.006-4.695 46.736 3.586 61.827 21.575v0z" />
<glyph unicode="&#xe92c;" glyph-name="layerlistclose" d="M846.49 745.132l-335.488-335.296-339.712 339.712c-25.189 23.655-64.607 23.042-89.050-1.383s-25.083-63.843-1.446-89.049v0l384-384c12.083-12.57 28.772-19.667 46.208-19.648v0c17.382 0 34.017 7.069 46.080 19.584v0l384 384c16.49 16.715 22.503 41.118 15.666 63.581s-25.425 39.379-48.431 44.073c-23.006 4.695-46.736-3.586-61.827-21.575v0z" />
<glyph unicode="&#xe92d;" glyph-name="preview" d="M800 528c0 0-87.744-165.504-260.576-207.552-42.016 0.768-42.016 0.864-86.848 0-174.944 39.744-260.576 207.552-260.576 207.552s86.4 165.536 260.608 207.584c42.336 0.256 42.368 0 86.848 0 170.944-39.008 260.544-207.584 260.544-207.584v0zM496 639.648c-61.822-0.141-111.838-50.348-111.744-112.17s50.262-111.876 112.085-111.829c61.823 0.047 111.915 50.177 111.915 112 0.908 30.021-10.635 59.082-31.894 80.299s-50.343 32.701-80.362 31.733v-0.032zM496 575.968c26.51 0 48-21.49 48-48s-21.49-48-48-48c-26.51 0-48 21.49-48 48-0.008 12.736 5.045 24.953 14.048 33.962s21.217 14.070 33.952 14.070v-0.032z" />
<glyph unicode="&#xe92e;" glyph-name="backtoslider" d="M192 512l256 192h64v-128h320v-128h-320v-128h-64z" />
<glyph unicode="&#xe92f;" glyph-name="addlayer2" d="M448 896h128v-320h320v-128h-320v-320h-128v320h-320v128h320z" />
<glyph unicode="&#xe930;" glyph-name="selectarrow" d="M480 640h192c12.836 0 24.43-7.669 29.451-19.483s2.497-25.484-6.411-34.725v0l-192-192c-6.032-6.257-14.349-9.792-23.040-9.792v0c-8.691 0-17.008 3.535-23.040 9.792v0l-192 192c-8.908 9.242-11.432 22.912-6.411 34.725s16.615 19.483 29.451 19.483h192z" />
<glyph unicode="&#xe931;" glyph-name="layer-image" d="M448 384l-64 64h-64l-128-128v-64h640v64l-128 320h-64l-192-256zM116.352 960h791.232c61.604-3.218 111.343-51.481 116.416-112.96v-670.080c-5.073-61.479-54.812-109.742-116.416-112.96h-791.232c-61.021 4.509-110.040 52.099-116.352 112.96v670.080c6.312 60.861 55.331 108.451 116.352 112.96v0zM896 192v640h-768v-640h768zM288 768c53.019 0 96-42.981 96-96s-42.981-96-96-96c-53.019 0-96 42.981-96 96s42.981 96 96 96v0z" />
<glyph unicode="&#xe932;" glyph-name="layer-heading" d="M768 448h-512v-448h-192v1024h192v-384h512v384h192v-1024h-192v448z" />
<glyph unicode="&#xe933;" glyph-name="layer-button" d="M896 832h-768c-34.426 1.644-67.947-11.312-92.317-35.683s-37.327-57.892-35.683-92.317v-384c-1.644-34.426 11.312-67.947 35.683-92.317s57.892-37.327 92.317-35.683h768c34.196-0.833 67.24 12.385 91.428 36.572s37.406 57.231 36.572 91.428v384c0.833 34.196-12.385 67.24-36.572 91.428s-57.231 37.406-91.428 36.572v0zM128 320v384h768v-384h-768zM256 576h512v-128h-512v128z" />
<glyph unicode="&#xe934;" glyph-name="settings" d="M1022.016 559.552h-0.576c-2.027 20.096-17.92 35.989-38.016 38.016h-23.424c-30.813-0.153-57.286 21.841-62.784 52.16-4.736 13.141-10.091 25.941-16.064 38.4v0c-3.027 4.465-5.459 9.306-7.232 14.4v0c-8.176 23.225-2.303 49.082 15.104 66.496v0l12.8 12.8 0.512 0.448 0.448 0.512c15.022 15.496 16.067 39.783 2.432 56.512v0c-9.984 12.032-20.416 23.424-31.424 34.368-11.178 11.262-22.927 21.943-35.2 32v0c-15.033 12.193-36.389 12.744-52.032 1.344l-18.176-18.048-0.384 0.64c-18.103-18.082-45.235-23.644-68.992-14.144-3.164 1.23-6.206 2.751-9.088 4.544-14.774 7.148-29.971 13.389-45.504 18.688-2.788 0.712-5.524 1.61-8.192 2.688v0c-7.9 3.189-15.065 7.958-21.056 14.016-10.021 10.014-16.436 23.069-18.24 37.12-0.704 5.31-0.704 10.69 0 16v11.008c0.006 20.646-14.807 38.319-35.136 41.92l-7.488 0.64c-13.952 1.6-28.096 1.92-42.304 1.92s-28.48-0.576-42.624-1.792v0l-7.552-0.64c-20.304-3.629-35.084-21.294-35.072-41.92v-19.2c-0.020-26.689-16.599-50.563-41.6-59.904-1.546-0.608-3.128-1.121-4.736-1.536-16.941-5.763-33.488-12.626-49.536-20.544-1.216-0.64-2.496-1.28-3.84-1.856-24.263-11.125-52.883-6.024-71.808 12.8v0l-13.44 13.44c-14.56 14.572-37.458 16.647-54.4 4.928-1.92-1.536-3.84-3.072-5.632-4.672v0c-10.944-9.216-21.376-18.816-31.424-28.864s-19.712-20.48-28.864-31.296v0c-1.664-1.92-3.328-3.84-4.864-5.824-11.825-16.926-9.773-39.902 4.864-54.464l13.44-13.44c18.711-18.879 23.806-47.357 12.8-71.552-0.669-1.489-1.417-2.942-2.24-4.352-7.853-15.973-14.672-32.433-20.416-49.28-0.491-1.805-1.090-3.579-1.792-5.312v0c-3.213-8.33-8.166-15.88-14.528-22.144-11.948-12.041-28.221-18.795-45.184-18.752v0h-19.2c-20.64 0.017-38.327-14.758-41.984-35.072 0-2.432-0.512-4.928-0.704-7.488v0c-1.152-13.76-1.728-28.608-1.728-42.624v0-0.704c0-14.165 0.576-28.117 1.728-41.856v0c0-2.432 0.448-4.928 0.704-7.424 3.629-20.304 21.294-35.084 41.92-35.072h19.2c26.473-0.009 50.208-16.316 59.712-41.024v0c0.576-1.664 1.152-3.264 1.536-4.864 5.709-16.931 12.551-33.459 20.48-49.472 0.703-1.225 1.344-2.486 1.92-3.776 11.155-24.28 6.052-52.936-12.8-71.872v0l-13.312-13.312-0.448-0.512c-14.007-14.425-16.009-36.684-4.8-53.376l5.632-6.4c9.088-10.709 18.624-21.056 28.608-31.040v0c9.984-9.92 20.416-19.52 31.168-28.608l6.4-5.504c14.905-9.984 34.458-9.601 48.96 0.96l18.112 18.112h0.384c18.925 18.824 47.545 23.925 71.808 12.8 1.216-0.576 2.432-1.152 3.52-1.792v0c16.156-8.025 32.833-14.952 49.92-20.736l4.416-1.472c8.63-3.231 16.481-8.247 23.040-14.72 12-11.97 18.727-28.235 18.688-45.184v0-18.624c-0.006-21.899 16.606-40.228 38.4-42.368v0c15.488-1.536 31.104-2.24 46.976-2.24s31.552 0.704 47.040 2.24v0c21.779 2.169 38.376 20.481 38.4 42.368v16.832c0.016 24.822 14.384 47.396 36.864 57.92 4.448 2.108 9.132 3.677 13.952 4.672 13.964 4.895 27.64 10.579 40.96 17.024 3.848 2.617 7.995 4.765 12.352 6.4 22.135 8.367 47.087 3.702 64.704-12.096 1.99-1.649 3.832-3.469 5.504-5.44l10.944-10.88c14.839-14.756 38.171-16.624 55.168-4.416l4.096 3.456c11.2 9.408 21.952 19.2 32 29.568s20.224 21.12 29.632 32l3.712 4.416c11.793 16.264 10.564 38.57-2.944 53.44v0l-3.008 3.072-11.904 11.904c-18.454 18.508-23.8 46.377-13.504 70.4 0.951 2.189 2.019 4.326 3.2 6.4 7.613 15.451 14.218 31.377 19.776 47.68 0.64 2.176 1.344 4.352 2.176 6.4 9.622 24.467 33.229 40.56 59.52 40.576v0h18.752c22.668 0.003 41.369 17.747 42.56 40.384h0.64c1.28 14.72 1.92 29.696 1.92 44.8s-0.832 32.32-2.304 47.872v0zM773.76 512v0c0.014-39.795-9.002-79.074-26.368-114.88-25.692-52.444-68.022-94.909-120.384-120.768-9.699-4.858-19.679-9.132-29.888-12.8-27.405-9.333-56.17-14.047-85.12-13.952h-0.768c-28.728-0.058-57.269 4.613-84.48 13.824-10.575 3.58-20.902 7.856-30.912 12.8-52.255 25.61-94.579 67.776-120.384 119.936-17.612 35.853-26.805 75.255-26.88 115.2 0.013 29.187 4.79 58.176 14.144 85.824 3.591 10.488 7.867 20.728 12.8 30.656 25.867 52.347 68.362 94.64 120.832 120.256 9.885 4.881 20.059 9.156 30.464 12.8 27.218 9.181 55.755 13.851 84.48 13.824h0.704c29.040-0.029 57.872-4.895 85.312-14.4 10.206-3.497 20.169-7.666 29.824-12.48 26.093-12.776 49.884-29.797 70.4-50.368 20.32-20.435 37.18-44.039 49.92-69.888 4.87-9.781 9.144-19.847 12.8-30.144 9.39-27.33 14.169-56.030 14.144-84.928v0l-0.64-0.512z" />
<glyph unicode="&#xe935;" glyph-name="layerlist" d="M0 383.36l127.488 64 383.36-192 384.704 192.64 127.488-64-512-256.64-511.040 256zM0 702.848l512 256.64 510.848-256-512-256.64-510.848 256z" />
<glyph unicode="&#xe936;" glyph-name="magnet" d="M628.992 444.032l-91.392-94.464c-51.491-47.308-131.119-45.623-180.563 3.821s-51.129 129.072-3.821 180.563l94.784 91.072-135.744 135.744-92.8-92.8c-124.034-125.125-123.592-326.974 0.989-451.555s326.43-125.023 451.555-0.989l92.8 92.8-135.808 135.808zM674.304 489.28l90.496 90.496 135.744-135.744-90.496-90.496-135.744 135.744zM357.504 806.080l90.496 90.496 135.744-135.744-90.496-90.496-135.744 135.744z" />
<glyph unicode="&#xe937;" glyph-name="area-layer" d="M864 832h-704c-39.584 0-64-43.52-64-79.36v-489.28c-1.082-17.976 5.076-35.637 17.1-49.043s28.913-21.443 46.9-22.317h704c37.080 2.648 65.388 34.211 64 71.36v489.28c0 37.12-27.936 79.36-64 79.36v0zM160 256v512h704v-512h-704z" />
<glyph unicode="&#xe938;" glyph-name="iframe-layer" d="M864 864h-704c-39.584 0-64-43.424-64-79.328v-553.376c-1.073-17.967 5.090-35.616 17.114-49.011s28.908-21.419 46.886-22.285h704c37.055 2.647 65.353 34.172 64 71.296v553.376c0 37.088-27.936 79.328-64 79.328v0zM160 224v576h704v-576h-704zM575.264 698.816l-17.376 4.736c-2.181 0.764-4.591 0.506-6.56-0.704-2.125-1.152-3.695-3.114-4.352-5.44l-104.384-361.024c-0.757-2.278-0.5-4.771 0.704-6.848 1.182-2.113 3.147-3.676 5.472-4.352l17.344-4.736c2.181-0.764 4.591-0.506 6.56 0.704 2.118 1.16 3.685 3.119 4.352 5.44l104.384 361.024c0.757 2.278 0.5 4.771-0.704 6.848-1.177 2.104-3.129 3.666-5.44 4.352v0zM418.816 628.416c-0.010 2.425-1.017 4.739-2.784 6.4l-14.016 13.984c-1.658 1.77-3.975 2.775-6.4 2.775s-4.742-1.005-6.4-2.775l-130.4-130.304c-1.789-1.648-2.809-3.968-2.816-6.4 0.022-2.429 1.040-4.743 2.816-6.4l130.4-130.304c1.658-1.77 3.975-2.775 6.4-2.775s4.742 1.005 6.4 2.775l14.016 13.952c1.745 1.672 2.731 3.984 2.731 6.4s-0.987 4.728-2.731 6.4l-109.984 109.856 109.952 109.888c1.778 1.669 2.795 3.993 2.816 6.432v0.096zM765.248 518.528l-130.4 130.304c-1.658 1.77-3.975 2.775-6.4 2.775s-4.742-1.005-6.4-2.775l-13.984-13.984c-1.789-1.648-2.809-3.968-2.816-6.4 0.022-2.429 1.040-4.743 2.816-6.4l109.888-110.048-109.952-109.888c-1.762-1.663-2.76-3.978-2.76-6.4s0.998-4.737 2.76-6.4l13.984-13.952c1.658-1.77 3.975-2.775 6.4-2.775s4.742 1.005 6.4 2.775l130.4 130.304c1.758 1.647 2.761 3.945 2.773 6.354s-0.968 4.717-2.709 6.382v0.128z" />
<glyph unicode="&#xe939;" glyph-name="input-layer" d="M576 672v64h-480c-16.651-2.253-29.747-15.349-32-32v-352c2.253-16.651 15.349-29.747 32-32h480v64h-448v288h448zM928 736h-160v-64h128v-288h-128v-64h160c16.651 2.253 29.747 15.349 32 32v352c-2.253 16.651-15.349 29.747-32 32v0zM768 288h-64v480h64v64h-192v-64h64v-480h-64v-64h192v64z" />
<glyph unicode="&#xe93a;" glyph-name="html-layer" d="M630.592 886.048l-32.544 9.12c-4.101 1.419-8.621 0.925-12.32-1.344-3.99-2.272-6.913-6.036-8.128-10.464l-195.744-691.968c-1.415-4.365-0.94-9.122 1.312-13.12 2.176-4.021 5.859-7.013 10.24-8.32l32.544-9.088c4.092-1.461 8.627-0.978 12.32 1.312 3.99 2.272 6.913 6.036 8.128 10.464l195.744 691.968c1.415 4.365 0.94 9.122-1.312 13.12-2.167 4.028-5.854 7.023-10.24 8.32v0zM337.28 750.976c-0.011 4.647-1.905 9.092-5.248 12.32l-26.24 26.816c-3.087 3.404-7.469 5.345-12.064 5.345s-8.977-1.941-12.064-5.345l-244.512-249.792c-3.352-3.222-5.247-7.671-5.247-12.32s1.895-9.098 5.247-12.32l244.512-249.792c3.087-3.404 7.469-5.345 12.064-5.345s8.977 1.941 12.064 5.345l26.24 26.816c3.352 3.222 5.247 7.671 5.247 12.32s-1.895 9.098-5.247 12.32l-206.208 210.656 206.208 210.624c3.358 3.232 5.253 7.692 5.248 12.352v0zM986.88 540.32l-244.512 249.792c-3.087 3.404-7.469 5.345-12.064 5.345s-8.977-1.941-12.064-5.345l-26.24-26.816c-3.336-3.231-5.218-7.676-5.218-12.32s1.883-9.089 5.218-12.32l206.208-210.656-206.208-210.656c-3.336-3.231-5.218-7.676-5.218-12.32s1.883-9.089 5.218-12.32l26.24-26.816c3.087-3.404 7.469-5.345 12.064-5.345s8.977 1.941 12.064 5.345l244.512 249.792c3.348 3.226 5.237 7.677 5.231 12.327s-1.906 9.096-5.263 12.313h0.032z" />
<glyph unicode="&#xe93b;" glyph-name="video-layer" d="M672 192.256l-32-32.256h-512l-31.648 32.256v351.744l31.648 32h512l32-32v-351.744zM207.808 831.84c61.822-0.141 111.838-50.348 111.744-112.17s-50.262-111.876-112.085-111.829c-61.823 0.047-111.915 50.177-111.915 112 0 29.749 11.835 58.275 32.894 79.287s49.613 32.781 79.362 32.713v0zM528 896.32c58.353 0.091 111.011-34.991 133.405-88.876s10.11-115.956-31.12-157.25c-41.23-41.294-103.281-53.675-157.201-31.365s-89.084 74.913-89.084 133.267c-0.059 38.23 15.086 74.915 42.097 101.968s63.673 42.256 101.903 42.256v0zM928 160c-1.895-16.826-15.174-30.105-32-32-27.136 0-192 106.112-192 128v224c0 21.888 160.992 128 192 128 17.63-0.105 31.895-14.37 32-32v-416z" />
<glyph unicode="&#xe93c;" glyph-name="vimeo-layer" d="M784.288 864c-106.816 3.52-179.125-56.981-216.928-181.504 17.97 7.794 37.31 11.938 56.896 12.192 38.955 0 56.149-22.112 51.584-66.336-8.684-42.201-26.27-82.064-51.584-116.928-32.235-51.2-56.331-76.8-72.288-76.8-20.736 0-39.701 39.563-56.896 118.688-5.781 23.296-16.096 82.656-30.944 178.080-13.888 88.427-50.645 129.739-110.272 123.936-25.237-2.325-63.083-25.6-113.536-69.824-36.8-33.771-74.133-67.531-112-101.28l36.128-47.072c18.159 15.123 38.467 27.46 60.256 36.608 26.432 0 51.136-41.856 74.112-125.568 20.587-76.8 41.269-153.6 62.048-230.4 30.848-83.776 68.832-125.696 113.536-125.696 72.299 0 160.704 68.651 265.216 205.952 100.992 131.456 153.205 235.040 156.64 310.752 4.629 101.12-32.693 152.853-111.968 155.2v0z" />
<glyph unicode="&#xe93d;" glyph-name="youtube-layer" d="M536.032 159.808v0c-116.384 0-243.2 3.712-376.576 10.944-79.838 5.293-143.426 68.868-148.736 148.704-14.56 138.67-14.56 278.482 0 417.152 5.721 79.583 68.997 142.9 148.576 148.672 234.558 14.561 469.794 14.561 704.352 0 79.891-5.029 143.576-68.687 148.64-148.576 14.534-138.682 14.534-278.502 0-417.184-5.063-79.783-68.521-143.432-148.288-148.736-101.28-7.264-211.616-10.976-327.968-10.976v0zM508.96 831.808c-110.112 0-220.8-3.392-329.44-10.080-56.741-3.124-102.275-48.013-106.208-104.704-13.536-125.567-13.536-252.225 0-377.792 3.602-56.804 49.235-101.874 106.080-104.768 126.016-6.656 245.6-10.048 355.36-10.048s213.408 3.392 308.544 10.048c56.731 3.195 102.276 48.001 106.4 104.672 13.557 125.566 13.557 252.226 0 377.792-3.985 56.695-49.495 101.589-106.24 104.8-111.808 6.592-224.384 9.984-334.496 9.984v0.096zM416 672v-288l256 128v32l-256 128z" />
<glyph unicode="&#xe93e;" glyph-name="list-layer" d="M304 320h608c26.51 0 48-21.49 48-48s-21.49-48-48-48h-608c-26.51 0-48 21.49-48 48s21.49 48 48 48v0zM112 320c26.51 0 48-21.49 48-48s-21.49-48-48-48c-26.51 0-48 21.49-48 48s21.49 48 48 48v0zM304 544h608c26.51 0 48-21.49 48-48s-21.49-48-48-48h-608c-26.51 0-48 21.49-48 48s21.49 48 48 48v0zM112 544c26.51 0 48-21.49 48-48s-21.49-48-48-48c-26.51 0-48 21.49-48 48s21.49 48 48 48v0zM304 768h608c26.51 0 48-21.49 48-48s-21.49-48-48-48h-608c-26.51 0-48 21.49-48 48s21.49 48 48 48v0zM112 768c26.51 0 48-21.49 48-48s-21.49-48-48-48c-26.51 0-48 21.49-48 48s21.49 48 48 48v0z" />
<glyph unicode="&#xe93f;" glyph-name="transition-layer" d="M320.352 928v-864l351.648 128v608l-351.648 128zM64 799.68h191.68v-608h-191.68v608zM736.288 799.68v-608h191.712v608h-191.712z" />
<glyph unicode="&#xe940;" glyph-name="caption-layer" d="M768 736h-32l-32-32v-32l32-32h32l32 32v32l-32 32zM864 864h-704c-39.584 0-64-43.424-64-79.328v-553.376c-1.073-17.967 5.090-35.616 17.114-49.011s28.908-21.419 46.886-22.285h704c37.055 2.647 65.353 34.172 64 71.296v553.376c0 37.088-27.936 79.328-64 79.328v0zM160 224v576h704v-576h-704zM798.848 460.064l-103.552 127.232c-11.586 7.179-26.238 7.179-37.824 0l-48.896-26.784c-0.709-0.954-1.49-1.852-2.336-2.688-17.277-16.688-36.176-31.61-56.416-44.544-15.156 13.161-28.924 27.84-41.088 43.808-1.418 1.28-2.685 2.719-3.776 4.288l-62.784 99.904c-3.86 6.8-11.076 11.002-18.896 11.002s-15.036-4.202-18.896-11.002l-180.384-186.304v-58.976h576l-1.152 44.064zM224 352h576v-64h-576v64z" />
<glyph unicode="&#xe941;" glyph-name="icon-layer" d="M510.816 160c-140.483 2.166-253.582 116.017-254.816 256.512-0.416 131.648 250.272 447.488 250.272 447.488s261.248-310.048 261.568-446.112c-2.116-141.207-115.825-255.298-257.024-257.888v0z" />
<glyph unicode="&#xe942;" glyph-name="button-layer" d="M864 704h-704c-17.213 0.822-33.974-5.656-46.159-17.841s-18.664-28.946-17.841-46.159v-256c-0.822-17.213 5.656-33.974 17.841-46.159s28.946-18.664 46.159-17.841h704c17.098-0.417 33.62 6.192 45.714 18.286s18.703 28.616 18.286 45.714v256c0.417 17.098-6.192 33.62-18.286 45.714s-28.616 18.703-45.714 18.286v0zM160 384v256h704v-256h-704zM256 544h512v-64h-512v64z" />
<glyph unicode="&#xe943;" glyph-name="image-layer" d="M766.848 364.8l-103.552 161.984c-11.548 7.31-26.276 7.31-37.824 0l-48.896-27.232c-0.709-0.964-1.49-1.873-2.336-2.72-6.287-16.041-14.485-31.265-24.416-45.344-6.4 0-4.832 40.768-9.088 44.576-1.428 1.307-2.695 2.778-3.776 4.384l-94.784 101.632c-3.791 6.89-11.032 11.17-18.896 11.17s-15.105-4.28-18.896-11.17l-148.384-222.080v-60h512l-1.152 44.8zM736 672h-32l-32-32v-32l32-32h32l32 32v32l-32 32zM864 864h-704c-39.584 0-64-43.424-64-79.328v-553.376c-1.073-17.967 5.090-35.616 17.114-49.011s28.908-21.419 46.886-22.285h704c37.055 2.647 65.353 34.172 64 71.296v553.376c0 37.088-27.936 79.328-64 79.328v0zM160 224v576h704v-576h-704z" />
<glyph unicode="&#xe944;" glyph-name="text-layer" d="M864 704h-704v64h704v-64zM160 608h544v-64h-544v64zM160 448h704v-64h-704v64zM160 288h480v-64h-480v64z" />
<glyph unicode="&#xe945;" glyph-name="heading-layer" d="M256 832h96v-256h320v256h96v-640h-96v288h-320v-288h-96z" />
<glyph unicode="&#xe946;" glyph-name="reset2" d="M512 64c-202.82 4.654-368.699 163.056-382.697 365.446s128.496 382.119 328.745 414.65v115.904l219.84-166.4-219.84-167.808v107.776c-146.491-25.751-247.432-161.343-230.084-309.065s146.957-256.238 295.429-247.349c148.471 8.889 264.208 132.093 263.807 280.829 0.008 19.017-1.857 37.989-5.568 56.64h108.8c3.288-19.037 5.192-38.288 5.696-57.6 1.212-103.066-38.585-202.389-110.63-276.103s-170.431-115.774-273.498-116.921v0z" />
<glyph unicode="&#xe947;" glyph-name="save" d="M128 960l-64-64v-768l64-64h768l64 64v640l-192 192h-640zM256 896h512v-256h-512v256zM448 896h192v-128h-192v128zM256 512h512v-320h-512v320z" />
<glyph unicode="&#xe948;" glyph-name="clearanimation" d="M833.984 640h16c17.579 0.001 33.752-9.607 42.158-25.046s7.701-34.237-1.838-49.002l-352-544c-8.843-13.687-24.025-21.953-40.32-21.952-4.595 0-9.166 0.668-13.568 1.984-20.407 6.013-34.42 24.742-34.432 46.016v144l384 448zM241.984 384c-16.189 4.107-30.84 12.822-42.176 25.088-8.384 15.431-7.672 34.208 1.856 48.96l352 544c11.547 17.876 33.486 26.015 53.898 19.995s34.423-24.762 34.422-46.043v-144l-384-448h-16zM193.984 64l771.328 830.656c3.252 18.505-2.874 37.42-16.356 50.505s-32.572 18.643-50.972 14.839l-770.368-829.632c-1.139-17.927 5.486-35.478 18.188-48.18s30.253-19.327 48.18-18.188v0z" />
<glyph unicode="&#xe949;" glyph-name="chainsmall" d="M451.84 639.488l-33.92 34.56c-4.885 4.417-7.672 10.695-7.672 17.28s2.787 12.863 7.672 17.28l61.44 61.76c38.704 39.625 91.809 61.883 147.2 61.696 113.872-1.12 205.7-93.548 206.080-207.424-0.419-55.5-22.46-108.651-61.44-148.16l-61.44-61.76c-4.383-4.71-10.527-7.385-16.96-7.385s-12.577 2.675-16.96 7.385l-34.56 34.624c-4.885 4.417-7.672 10.695-7.672 17.28s2.787 12.863 7.672 17.28l61.44 61.696c20.24 20.47 31.716 48.015 32 76.8-0.345 59.696-48.467 108.103-108.16 108.8-28.624-0.156-56.015-11.665-76.16-32l-61.44-61.76c-11.936-5.572-25.869-4.803-37.12 2.048v0zM592 627.136l34.56-34.56c4.616-4.578 7.212-10.811 7.212-17.312s-2.596-12.734-7.212-17.312l-161.92-162.944c-4.496-4.744-10.744-7.431-17.28-7.431s-12.784 2.687-17.28 7.431l-34.56 34.56c-4.612 4.567-7.207 10.789-7.207 17.28s2.595 12.713 7.207 17.28l161.92 163.008c4.497 4.735 10.736 7.422 17.266 7.434s12.78-2.651 17.294-7.37v-0.064zM192 397.44c0.117 55.561 22.203 108.821 61.44 148.16l61.44 61.76c4.383 4.71 10.527 7.385 16.96 7.385s12.577-2.675 16.96-7.385l34.56-34.56c4.612-4.567 7.207-10.789 7.207-17.28s-2.595-12.713-7.207-17.28l-61.44-61.76c-20.504-20.293-32.029-47.952-32-76.8 0.345-59.696 48.467-108.103 108.16-108.8 28.628 0.135 56.027 11.647 76.16 32l61.44 61.696c4.496 4.744 10.744 7.431 17.28 7.431s12.784-2.687 17.28-7.431l33.92-34.56c4.885-4.417 7.672-10.695 7.672-17.28s-2.787-12.863-7.672-17.28l-61.44-61.76c-58.185-59.631-146.738-77.982-223.829-46.386s-127.293 106.817-126.891 190.13v0z" />
<glyph unicode="&#xe94a;" glyph-name="dashboard" d="M512.119 671.908l-256-224v-192c1.612-16.961 15.039-30.388 32-32h160v192h128v-192h160c16.961 1.612 30.388 15.039 32 32v192l-256 224zM859.351 519.332l-91.232 88.576v160c-6.152 14.387-17.613 25.848-32 32h-64c-16.463-2.628-29.372-15.537-32-32v-64l-94.816 84.416c-19.384 15.569-46.984 15.569-66.368 0l-314.080-268.992c-2.896-2.369-4.642-5.862-4.8-9.6-0.326-3.8 0.819-7.58 3.2-10.56l27.072-33.216c2.36-2.705 5.625-4.458 9.184-4.928 3.756-0.196 7.46 0.937 10.464 3.2l302.144 258.88 302.272-259.2c2.535-2.188 5.806-3.331 9.152-3.2h1.312c3.559 0.47 6.824 2.223 9.184 4.928l27.072 33.248c2.384 2.978 3.529 6.76 3.2 10.56-0.129 3.854-1.942 7.457-4.96 9.856v0.032z" />
<glyph unicode="&#xe94b;" glyph-name="slider2" d="M734.848 396.8l-71.552 129.984c-11.537 7.349-26.287 7.349-37.824 0l-48.864-27.232c-0.736-0.952-1.527-1.86-2.368-2.72-6.285-16.036-14.472-31.259-24.384-45.344-6.4 0-4.864 40.768-9.12 44.576-1.429 1.305-2.697 2.777-3.776 4.384l-94.752 101.632c-3.786 6.906-11.036 11.199-18.912 11.199s-15.126-4.293-18.912-11.199l-116.384-190.080v-60h448l-1.152 44.8zM704 672h-32l-32-32v-32l32-32h32l32 32v32l-32 32zM800 800h-576c-17.213 0.822-33.974-5.656-46.159-17.841s-18.664-28.946-17.841-46.159v-448c-0.822-17.213 5.656-33.974 17.841-46.159s28.946-18.664 46.159-17.841h576c17.098-0.417 33.62 6.192 45.714 18.286s18.703 28.616 18.286 45.714v448c0.426 17.101-6.18 33.628-18.276 45.724s-28.623 18.702-45.724 18.276v0zM224 288v448h576v-448h-576z" />
<glyph unicode="&#xe94c;" glyph-name="window-settings" d="M155.168 422.4l38.72-17.824c16.048-7.515 23.731-26.016 17.728-42.688l-15.040-39.968c-11.154-30.183-6.893-63.909 11.418-90.369s48.373-42.331 80.55-42.527c11.941-0.022 23.786 2.147 34.944 6.4l39.808 15.136c3.749 1.551 7.784 2.293 11.84 2.176 13.282 0.006 25.31-7.842 30.656-20l17.728-38.912c15.306-35.209 50.088-57.941 88.48-57.824 38.796-0.185 74.077 22.45 90.080 57.792l17.76 38.912c5.411 12.103 17.399 19.924 30.656 20 4.042 0.067 8.056-0.673 11.808-2.176l39.808-15.68c11.135-4.447 22.988-6.822 34.976-7.008v0c32.275 0.611 62.29 16.696 80.672 43.232 18.316 26.607 22.531 60.466 11.296 90.752l-15.072 39.968c-6.015 16.681 1.688 35.196 17.76 42.688l38.72 17.824c35.062 16.075 57.54 51.109 57.54 89.68s-22.478 73.605-57.54 89.68l-38.72 17.824c-16.072 7.492-23.775 26.007-17.76 42.688l15.040 39.968c11.184 30.178 6.941 63.915-11.37 90.383s-48.383 42.337-80.566 42.513c-11.952 0.022-23.806-2.147-34.976-6.4l-39.808-15.136c-3.742-1.536-7.765-2.266-11.808-2.144-13.284-0.014-25.317 7.836-30.656 20l-17.76 38.912c-16.14 35.303-51.438 57.902-90.255 57.785s-73.978-22.929-89.905-58.329l-17.76-38.912c-5.411-12.103-17.399-19.924-30.656-20-4.061-0.14-8.108 0.535-11.904 1.984l-39.808 15.136c-11.17 4.253-23.024 6.422-34.976 6.4-32.199-0.397-62.232-16.289-80.672-42.688-18.3-26.421-22.519-60.123-11.296-90.24l15.072-39.968c6.015-16.681-1.688-35.196-17.76-42.688l-38.72-17.824c-35.062-15.659-57.585-50.528-57.44-88.928 0.457-38.882 23.589-73.911 59.168-89.6v0zM181.504 542.88l38.72 17.824c46.94 21.651 69.261 75.821 51.2 124.256l-15.072 39.968c-4.069 10.234-2.646 21.836 3.776 30.784 8.613 13.043 25.238 18.187 39.712 12.288l39.776-15.136c10.981-4.251 22.657-6.421 34.432-6.4v0c38.48 0.217 73.327 22.774 89.28 57.792l17.76 38.912c5.488 11.685 18.267 18.088 30.912 15.488 12.494 2.475 25.058-3.926 30.4-15.488l17.728-38.912c15.953-35.018 50.8-57.575 89.28-57.792 11.775-0.021 23.451 2.149 34.432 6.4l39.776 15.136c14.551 5.304 30.852 0.219 39.808-12.416 6.422-8.948 7.845-20.55 3.776-30.784l-15.2-40c-17.78-48.43 4.463-102.411 51.2-124.256l38.72-17.824c11.783-5.417 18.585-17.953 16.704-30.784 1.784-12.814-4.989-25.295-16.704-30.784l-38.72-17.824c-46.928-21.663-69.244-75.821-51.2-124.256l15.072-39.968c4.069-10.234 2.646-21.836-3.776-30.784-8.584-13.137-25.278-18.344-39.808-12.416l-39.776 15.136c-10.981 4.251-22.657 6.421-34.432 6.4-38.48-0.217-73.327-22.774-89.28-57.792l-17.728-38.912c-5.27-11.631-17.893-18.062-30.4-15.488-12.634-2.515-25.363 3.863-30.912 15.488l-17.76 38.912c-15.953 35.018-50.8 57.575-89.28 57.792-11.775 0.021-23.451-2.149-34.432-6.4l-39.648-15.040c-14.551-5.292-30.845-0.21-39.808 12.416-6.422 8.948-7.845 20.55-3.776 30.784l15.072 39.968c17.862 48.431-4.404 102.467-51.2 124.256l-38.72 17.824c-10.091 7.002-16.103 18.511-16.084 30.793s6.066 23.773 16.18 30.743v0.096zM512.288 373.76c76.333 0.247 138.032 62.29 137.856 138.623s-62.162 138.090-138.495 137.984c-76.333-0.106-138.147-62.034-138.112-138.367 0.334-76.419 62.332-138.217 138.752-138.304v0.064zM511.2 587.712c40.070-1.902 71.192-35.618 69.888-75.712-0.81-37.708-31.611-67.854-69.328-67.854s-68.518 30.146-69.328 67.854c-1.793 39.841 28.937 73.646 68.768 75.648v0.064z" />
<glyph unicode="&#xe94d;" glyph-name="window-animation" d="M804.512 602.72c-8.158 6.117-18.705 8.070-28.512 5.28h-160v288c1.616 12.759-5.166 25.109-16.8 30.592-11.693 3.895-24.555-0.362-31.616-10.464l-303.584-468.128c-1.431-8.849 1.477-17.846 7.815-24.185s15.336-9.246 24.185-7.815h160l-1.504-292c-0.813-12.216 6.991-23.35 18.752-26.752 2.706-0.83 5.521-1.25 8.352-1.248 9.344-0.053 18.078 4.633 23.2 12.448l299.168 468c5.157 7.943 5.368 18.122 0.544 26.272v0zM520 256v192c1.043 8.765-1.992 17.525-8.234 23.766s-15.001 9.276-23.766 8.234h-128l192 288v-192c1.023-17.232 14.768-30.977 32-32h128l-192-288z" />
<glyph unicode="&#xe94e;" glyph-name="window-design" d="M704.224 650.112l-215.168 214.4-31.104 31.744-73.6-71.264c-125.6 17.728-215.904-27.872-247.872-83.968-22.345-45.827-21.561-99.549 2.112-144.704 25.787-59.434 78.502-102.903 141.76-116.896 13.246-2.54 26.705-3.805 40.192-3.776 61.778 3.070 121.812 21.516 174.656 53.664 30.371-20.434 70.758-17.546 97.912 7.001s34.091 64.439 16.816 96.711c-17.275 32.273-54.316 48.624-89.802 39.641s-60.287-40.988-60.126-77.593c0.111-4.292 0.539-8.571 1.28-12.8-48.416-27.168-112.32-52.736-168.864-41.6-44.466 10.639-81.041 42.124-98.176 84.512-13.707 24.293-14.546 53.784-2.24 78.816 28.224 53.952 49.056 65.984 137.44 66.752l-115.2-114.24c1.088-2.496 1.92-4 1.952-4.128 10.762-16.865 24.209-31.858 39.808-44.384l182.176 182.048c18.52 18.284 48.296 18.284 66.816 0l228.352-226.208c8.845-8.725 13.825-20.631 13.825-33.056s-4.979-24.331-13.825-33.056l-296.832-294.016c-18.78-17.638-48.036-17.638-66.816 0l-228.416 226.24c-8.859 8.711-13.849 20.615-13.849 33.040s4.99 24.329 13.849 33.040l18.72 15.968c-12.854 20.168-23.578 41.616-32 64l-31.296-35.872c-20.676-20.354-32.318-48.154-32.318-77.168s11.643-56.814 32.318-77.168l228.416-226.24c43.235-42.577 112.637-42.577 155.872 0l296.768 294.048 62.304 61.088-17.28 17.248c32.672 17.632 47.264-129.696 47.264-129.696s45.664-351.552 86.24 0c38.912 336.448-228.736 255.552-252.064 247.872v0z" />
<glyph unicode="&#xe94f;" glyph-name="window-layer" d="M823.584 697.12l-50.752-50.72-126.912 127.296 50.784 50.848c10.816 10.358 27.872 10.358 38.688 0l88.192-88.544c10.675-10.724 10.675-28.060 0-38.784v0-0.096zM399.456 271.776l-126.912 127.296 328.096 329.152 126.912-127.296-328.096-329.152zM243.264 337.696l94.944-95.264-132.224-37.344 37.28 132.608zM868.864 781.28l-88.064 88.512c-36.066 34.651-93.054 34.651-129.12 0l-447.008-448c-3.902-3.857-6.708-8.684-8.128-13.984l-67.392-240.32c-3.013-11.171 0.089-23.102 8.16-31.392 8.783-7.099 20.198-10.072 31.328-8.16l239.744 67.648c5.285 1.43 10.091 4.247 13.92 8.16l446.688 448c35.597 35.829 35.597 93.675 0 129.504v0l-0.128 0.032z" />
<glyph unicode="&#xe950;" glyph-name="imagearea-layer" d="M864 864v0c36.064 0 64-42.24 64-79.328v-553.376c1.353-37.124-26.945-68.649-64-71.296h-704c-17.978 0.866-34.863 8.891-46.886 22.285s-18.186 31.043-17.114 49.011v553.376c0 35.904 24.416 79.328 64 79.328h704zM735.008 423.168l-90.624 141.536c-10.115 6.39-23.005 6.39-33.12 0l-42.752-23.808c-0.64-0.825-1.324-1.616-2.048-2.368-5.517-14.006-12.682-27.304-21.344-39.616-3.867 12.706-6.545 25.743-8 38.944-1.208 1.143-2.282 2.421-3.2 3.808l-82.912 88.8c-3.318 6.034-9.658 9.783-16.544 9.783s-13.226-3.749-16.544-9.783l-129.92-194.048v-52.416h448l-0.992 39.168zM769.568 672.256l54.592 54.816 39.84-39.872v112.8h-112.768l38.912-39.072-54.4-54.752 33.824-33.92zM254.368 672.256l33.824 33.92-54.4 54.752 39.040 39.072h-112.832v-112.8l39.84 39.872 54.528-54.816zM769.568 351.744l-33.824-33.92 54.4-54.752-38.912-39.072h112.768v112.8l-39.84-39.872-54.592 54.816zM254.368 351.744l-54.528-54.816-39.84 39.872v-112.8h112.832l-39.040 39.072 54.4 54.752-33.824 33.92z" />
</font>
</defs>
</svg>
